<svg width="291" height="128" viewBox="0 0 291 128" fill="none" xmlns="http://www.w3.org/2000/svg">
    <rect x="0.563354" width="290" height="128" rx="12" fill="white"/>
    <path fill-rule="evenodd" clip-rule="evenodd" d="M118.495 64.8354L145.563 52.4634V80.9072L118.495 64.8354Z" fill="#88AAF0"/>
    <path d="M145.563 80.9072L172.62 64.8354L145.563 52.4634V80.9072Z" fill="#C9B3F6"/>
    <path d="M118.501 64.7305L145.568 52.3625V19.5947L118.501 64.7305Z" fill="#EECEC4"/>
    <g opacity="0.8">
        <path d="M145.569 19.5947V52.3625L172.626 64.7305L145.569 19.5947Z" fill="#B6F9F4"/>
    </g>
    <path d="M118.501 69.8848L145.568 108.209V85.9566L118.501 69.8848Z" fill="#F0CCBF"/>
    <g opacity="0.8">
        <path opacity="0.8" d="M145.569 85.9566V108.209L172.647 69.8848L145.569 85.9566Z" fill="#C9B0F2"/>
    </g>
    <path fill-rule="evenodd" clip-rule="evenodd" d="M145.563 19L173.52 64.9295L145.563 81.5706L117.606 64.9295L145.563 19ZM119.886 64.7866L144.919 79.6869V53.4624L119.886 64.7866ZM144.919 52.0477L120.131 63.2614L144.919 22.5378V52.0477ZM146.208 22.5378V52.0477L170.996 63.2614L146.208 22.5378ZM171.24 64.7866L146.208 53.4624V79.6869L171.24 64.7866ZM117.97 70.2382L115.917 67.2865L145.563 85.2264L175.209 67.2865L173.157 70.2382L145.563 109L117.97 70.2382ZM144.919 86.3428L120.794 71.983L144.919 105.872V86.3428ZM146.208 105.872V86.3428L170.332 71.983L146.208 105.872Z" fill="#29036D"/>
</svg>
