<svg width="514" height="502" viewBox="0 0 514 502" fill="none" xmlns="http://www.w3.org/2000/svg">
<g opacity="0.95" filter="url(#filter0_f_217_1025)">
<mask id="mask0_217_1025" style="mask-type:alpha" maskUnits="userSpaceOnUse" x="71" y="49" width="382" height="402">
<g opacity="0.95">
<path opacity="0.95" d="M443.801 49H80.1992C75.1186 49 71 53.3343 71 58.6808V441.319C71 446.666 75.1186 451 80.1992 451H443.801C448.881 451 453 446.666 453 441.319V58.6808C453 53.3343 448.881 49 443.801 49Z" fill="white"/>
</g>
</mask>
<g mask="url(#mask0_217_1025)">
<g opacity="0.95">
<path opacity="0.95" d="M443.801 49H80.1992C75.1186 49 71 53.3343 71 58.6808V441.319C71 446.666 75.1186 451 80.1992 451H443.801C448.881 451 453 446.666 453 441.319V58.6808C453 53.3343 448.881 49 443.801 49Z" fill="white"/>
<g opacity="0.95" filter="url(#filter1_f_217_1025)">
<path opacity="0.95" d="M167.58 779.192C242.374 779.192 303.007 657.096 303.007 506.483C303.007 355.87 242.374 233.774 167.58 233.774C92.7856 233.774 32.1528 355.87 32.1528 506.483C32.1528 657.096 92.7856 779.192 167.58 779.192Z" fill="#EB5DC7"/>
</g>
<g opacity="0.95" filter="url(#filter2_f_217_1025)">
<path opacity="0.95" d="M416.312 436.235C479.484 436.235 530.696 333.11 530.696 205.899C530.696 78.6879 479.484 -24.437 416.312 -24.437C353.139 -24.437 301.927 78.6879 301.927 205.899C301.927 333.11 353.139 436.235 416.312 436.235Z" fill="#FFCEF1"/>
</g>
<g opacity="0.95" filter="url(#filter3_f_217_1025)">
<path opacity="0.95" d="M349.947 724.706C424.741 724.706 485.374 602.61 485.374 451.997C485.374 301.385 424.741 179.289 349.947 179.289C275.153 179.289 214.52 301.385 214.52 451.997C214.52 602.61 275.153 724.706 349.947 724.706Z" fill="#DE08A2"/>
</g>
<g opacity="0.95" filter="url(#filter4_f_217_1025)">
<path opacity="0.95" d="M185.924 326.464C286.345 326.464 367.752 162.535 367.752 -39.6822C367.752 -241.899 286.345 -405.828 185.924 -405.828C85.5038 -405.828 4.09668 -241.899 4.09668 -39.6822C4.09668 162.535 85.5038 326.464 185.924 326.464Z" fill="#FF73AE"/>
</g>
</g>
</g>
</g>
<g opacity="0.95" filter="url(#filter5_ii_217_1025)">
<mask id="mask1_217_1025" style="mask-type:alpha" maskUnits="userSpaceOnUse" x="60" y="38" width="400" height="400">
<g opacity="0.95">
<path opacity="0.95" d="M452 38H68C63.5817 38 60 41.5817 60 46V430C60 434.418 63.5817 438 68 438H452C456.418 438 460 434.418 460 430V46C460 41.5817 456.418 38 452 38Z" fill="white"/>
</g>
</mask>
<g mask="url(#mask1_217_1025)">
<g opacity="0.95">
<g opacity="0.95">
<path opacity="0.95" d="M452 38H68C63.5817 38 60 41.5817 60 46V430C60 434.418 63.5817 438 68 438H452C456.418 438 460 434.418 460 430V46C460 41.5817 456.418 38 452 38Z" fill="#E996C8"/>
</g>
<g opacity="0.95" filter="url(#filter6_f_217_1025)">
<path opacity="0.95" d="M161.13 764.557C239.448 764.557 302.938 643.069 302.938 493.206C302.938 343.343 239.448 221.855 161.13 221.855C82.8114 221.855 19.3218 343.343 19.3218 493.206C19.3218 643.069 82.8114 764.557 161.13 764.557Z" fill="#EB5DC7"/>
</g>
<g opacity="0.95" filter="url(#filter7_f_217_1025)">
<path opacity="0.95" d="M419.455 126.861C475.487 172.193 564.698 154.817 618.714 88.0517C672.731 21.286 671.097 -69.5872 615.065 -114.919C559.034 -160.251 469.822 -142.876 415.806 -76.1099C361.789 -9.34418 363.423 81.529 419.455 126.861Z" fill="#3066FF"/>
</g>
<g opacity="0.95" filter="url(#filter8_f_217_1025)">
<path opacity="0.95" d="M589 485C667.424 485 731 409.112 731 315.5C731 221.888 667.424 146 589 146C510.576 146 447 221.888 447 315.5C447 409.112 510.576 485 589 485Z" fill="#00FFC2"/>
</g>
<g opacity="0.95" filter="url(#filter9_f_217_1025)">
<path opacity="0.95" d="M47 279C168.503 279 267 185.651 267 70.5C267 -44.6514 168.503 -138 47 -138C-74.5026 -138 -173 -44.6514 -173 70.5C-173 185.651 -74.5026 279 47 279Z" fill="#B79BFF"/>
</g>
</g>
</g>
</g>
<path fill-rule="evenodd" clip-rule="evenodd" d="M201.407 187.194L155.008 110V110.008L108.571 187.194L136.746 203.698C136.366 205.191 136.164 206.755 136.164 208.366C136.164 208.835 136.182 209.301 136.215 209.761L105 191.473L154.94 263L154.994 262.923L155.048 263L204.988 191.473L173.785 209.754C173.818 209.296 173.835 208.833 173.835 208.366C173.835 206.751 173.632 205.183 173.25 203.687L201.407 187.194ZM171.528 199.317L193.119 186.671L163.017 173.022V191.301C166.631 193.005 169.615 195.825 171.528 199.317ZM163.017 167.926L192.402 181.25L156.803 122.268V135.477C164.002 136.394 169.567 142.548 169.567 150.004C169.567 155.101 166.965 159.591 163.017 162.214V167.926ZM154.936 164.648C156.123 164.648 157.276 164.507 158.38 164.24V189.815C157.283 189.616 156.154 189.512 155 189.512C153.932 189.512 152.884 189.601 151.865 189.772V164.325C152.855 164.537 153.883 164.648 154.936 164.648ZM147.228 162.453C143.073 159.87 140.306 155.26 140.306 150.004C140.306 142.553 145.865 136.401 153.057 135.478V122.577L117.606 181.208L147.228 167.777V162.453ZM147.228 172.873L116.832 186.655L138.466 199.327C140.421 195.751 143.501 192.879 147.228 191.187V172.873ZM161.028 226.234C159.135 226.874 157.108 227.22 155 227.22C152.836 227.22 150.758 226.855 148.823 226.183V246.027L154.994 254.837L161.028 246.222V226.234ZM142.934 222.844C143.337 223.182 143.755 223.502 144.186 223.806V239.406L138.131 230.76L142.934 222.844ZM139.656 219.304C138.926 218.28 138.295 217.178 137.779 216.015L120.238 205.254L132.464 222.744L132.499 222.719L135.224 226.609L139.656 219.304ZM165.665 223.909V239.601L171.784 230.864L166.967 222.926C166.548 223.272 166.113 223.6 165.665 223.909ZM177.489 222.719L174.691 226.714L170.263 219.416C171.029 218.357 171.689 217.215 172.225 216.006L189.75 205.254L177.524 222.744L177.489 222.719ZM154.936 160.007C160.455 160.007 164.93 155.528 164.93 150.004C164.93 144.479 160.455 140 154.936 140C149.417 140 144.943 144.479 144.943 150.004C144.943 155.528 149.417 160.007 154.936 160.007ZM169.198 208.366C169.198 216.215 162.841 222.578 155 222.578C147.158 222.578 140.802 216.215 140.802 208.366C140.802 200.517 147.158 194.154 155 194.154C162.841 194.154 169.198 200.517 169.198 208.366Z" fill="white"/>
<path d="M216.16 182V143.676H242.368V149.604H222.66V158.964H240.652V164.892H222.66V176.072H242.368V182H216.16ZM255.877 182V149.604H245.217V143.676H273.037V149.604H262.377V182H255.877ZM277.479 182V143.676H283.979V159.068H300.775V143.676H307.275V182H300.775V164.788H283.979V182H277.479ZM215.52 228V224.64H230.04L232.2 222.44V216.56L230.04 214.36H218.64L214.48 210.2V202.72L218.64 198.52H234.32V201.88H220.28L218.08 204.08L218.12 208.96L220.28 211.16H231.68L235.84 215.36V223.8L231.68 228H215.52ZM241.408 228V198.52H245.048V210.88H259.648V198.52H263.288V228H259.648V214.12H245.048V228H241.408ZM266.877 228L276.837 198.52H282.477L292.437 228H288.637L286.117 220.32H273.197L270.717 228H266.877ZM274.277 217.12H285.077L280.117 201.96H279.197L274.277 217.12ZM296.077 228V198.52H301.037L314.197 222.24V198.52H317.837V228H313.517L300.597 204.72H299.717V228H296.077ZM327.748 228L323.628 223.8V202.72L327.828 198.52H341.828L345.908 202.6L343.588 204.96L340.388 201.76H329.468L327.268 203.96V222.56L329.468 224.76H338.308L342.868 220.52V215.72H336.068V212.52H345.908V228H342.868V224.6L339.228 228H327.748ZM352.425 228V198.52H356.065V210.88H370.665V198.52H374.305V228H370.665V214.12H356.065V228H352.425ZM377.894 228L387.854 198.52H393.494L403.454 228H399.654L397.134 220.32H384.214L381.734 228H377.894ZM385.294 217.12H396.094L391.134 201.96H390.214L385.294 217.12ZM406.094 228V224.64H409.694V201.88H406.094V198.52H416.934V201.88H413.334V224.64H416.934V228H406.094Z" fill="white"/>
<path d="M98.1998 316L92.7998 298.864V289.468H103.132L104.536 309.304H106.012L107.416 289.468H115.84L117.244 309.304H118.756L120.16 289.468H130.456V298.864L125.092 316H114.076L111.664 309.844L109.18 316H98.1998ZM136.435 316L132.439 312.58V300.592L136.435 297.172H149.575L153.571 300.592V308.44H141.943V310.708H153.391V316H136.435ZM141.943 304.876H145.255V300.556H141.943V304.876ZM156.2 316V289.468H165.704V298.72L167.864 297.172H174.632L178.628 300.592V312.58L174.632 316H167.576L165.704 314.704V316H156.2ZM168.008 312.796H169.16V300.664H167.864L165.704 302.284V311.392L168.008 312.796ZM193.599 316L190.179 312.004V307.684H200.295V310.708H205.443V305.38H197.163V299.548H205.443V294.76H200.295V297.712H190.179V293.464L193.599 289.468H212.355L215.775 293.464V299.548L212.823 302.464L215.775 305.344V312.004L212.355 316H193.599ZM219.013 316V309.268H226.861V316H219.013ZM234.443 316L230.447 312.58V292.888L234.443 289.468H252.155L256.151 292.888V312.58L252.155 316H234.443ZM240.707 310.492H245.891V294.976H240.707V310.492ZM268.42 316V309.052H281.452V305.884L271.3 305.848L267.304 302.464V292.888L271.3 289.468H290.128V296.344H277.24V299.26L287.428 299.296L291.424 302.68V312.58L287.428 316H268.42ZM297.664 316L293.668 312.58V297.172H303.136V312.508H304.288L306.484 310.852V297.172H315.952V316H306.484V314.38L304.18 316H297.664ZM318.765 316V297.172H328.233V298.792L330.537 297.172H337.233L340.005 299.548L343.389 297.172H350.085L354.081 300.592V316H344.649V300.664H343.497L341.229 302.248V316H331.797V300.664H330.645L328.233 302.392V316H318.765ZM356.726 316V297.172H366.194V298.792L368.498 297.172H375.194L377.966 299.548L381.35 297.172H388.046L392.042 300.592V316H382.61V300.664H381.458L379.19 302.248V316H369.758V300.664H368.606L366.194 302.392V316H356.726ZM394.686 295.3V289.612H404.154V295.3H394.686ZM394.686 316V297.172H404.154V316H394.686ZM411.123 316L407.091 312.58V301.456H405.975V297.172H407.415L410.619 290.98H416.595V297.172H419.259V301.456H416.595V311.68H419.835V316H411.123ZM96.3998 358L92.4038 354.58V334.888L96.3998 331.468H113.896L117.892 334.888V342.592H107.38V336.976H102.664V352.492H107.452V346.768H118V354.58L114.004 358H96.3998ZM120.63 358V339.172H130.098V341.512L132.618 339.172H136.146V346.264H130.098V358H120.63ZM138.462 364.732V359.656H149.19L150.378 358.648V356.56L148.65 357.748H141.594L137.598 354.364V339.172H147.066V354.544H148.218L150.378 353.212V339.172H159.846V359.8L155.238 364.732H138.462ZM162.66 364.732V339.172H172.164V340.72L174.288 339.172H181.092L185.088 342.592V354.58L181.092 358H174.036L172.164 356.74V364.732H162.66ZM174.468 354.796H175.62V342.664H174.288L172.164 344.248V353.392L174.468 354.796ZM191.894 358L187.862 354.58V343.456H186.746V339.172H188.186L191.39 332.98H197.366V339.172H200.03V343.456H197.366V353.68H200.606V358H191.894ZM206.256 358L202.26 354.58V342.592L206.256 339.172H220.548L224.544 342.592V354.58L220.548 358H206.256ZM211.764 354.616H215.076V342.556H211.764V354.616ZM239.919 358L235.923 354.58V334.888L239.919 331.468H257.415L261.411 334.888V342.592H250.899V336.976H246.183V352.492H250.971V346.768H261.519V354.58L257.523 358H239.919ZM264.149 337.3V331.612H273.617V337.3H264.149ZM264.149 358V339.172H273.617V358H264.149ZM280.586 358L276.554 354.58V343.456H275.438V339.172H276.878L280.082 332.98H286.058V339.172H288.722V343.456H286.058V353.68H289.298V358H280.586ZM291.816 364.732V359.656H302.544L303.732 358.648V356.56L302.004 357.748H294.948L290.952 354.364V339.172H300.42V354.544H301.572L303.732 353.212V339.172H313.2V359.8L308.592 364.732H291.816Z" fill="white"/>
<defs>
<filter id="filter0_f_217_1025" x="51" y="29" width="422" height="442" filterUnits="userSpaceOnUse" color-interpolation-filters="sRGB">
<feFlood flood-opacity="0" result="BackgroundImageFix"/>
<feBlend mode="normal" in="SourceGraphic" in2="BackgroundImageFix" result="shape"/>
<feGaussianBlur stdDeviation="10" result="effect1_foregroundBlur_217_1025"/>
</filter>
<filter id="filter1_f_217_1025" x="-89.6182" y="112.003" width="514.396" height="788.96" filterUnits="userSpaceOnUse" color-interpolation-filters="sRGB">
<feFlood flood-opacity="0" result="BackgroundImageFix"/>
<feBlend mode="normal" in="SourceGraphic" in2="BackgroundImageFix" result="shape"/>
<feGaussianBlur stdDeviation="60.8855" result="effect1_foregroundBlur_217_1025"/>
</filter>
<filter id="filter2_f_217_1025" x="180.156" y="-146.208" width="472.311" height="704.214" filterUnits="userSpaceOnUse" color-interpolation-filters="sRGB">
<feFlood flood-opacity="0" result="BackgroundImageFix"/>
<feBlend mode="normal" in="SourceGraphic" in2="BackgroundImageFix" result="shape"/>
<feGaussianBlur stdDeviation="60.8855" result="effect1_foregroundBlur_217_1025"/>
</filter>
<filter id="filter3_f_217_1025" x="92.749" y="57.5176" width="514.396" height="788.96" filterUnits="userSpaceOnUse" color-interpolation-filters="sRGB">
<feFlood flood-opacity="0" result="BackgroundImageFix"/>
<feBlend mode="normal" in="SourceGraphic" in2="BackgroundImageFix" result="shape"/>
<feGaussianBlur stdDeviation="60.8855" result="effect1_foregroundBlur_217_1025"/>
</filter>
<filter id="filter4_f_217_1025" x="-117.674" y="-527.599" width="607.198" height="975.834" filterUnits="userSpaceOnUse" color-interpolation-filters="sRGB">
<feFlood flood-opacity="0" result="BackgroundImageFix"/>
<feBlend mode="normal" in="SourceGraphic" in2="BackgroundImageFix" result="shape"/>
<feGaussianBlur stdDeviation="60.8855" result="effect1_foregroundBlur_217_1025"/>
</filter>
<filter id="filter5_ii_217_1025" x="55" y="33" width="409" height="409" filterUnits="userSpaceOnUse" color-interpolation-filters="sRGB">
<feFlood flood-opacity="0" result="BackgroundImageFix"/>
<feBlend mode="normal" in="SourceGraphic" in2="BackgroundImageFix" result="shape"/>
<feColorMatrix in="SourceAlpha" type="matrix" values="0 0 0 0 0 0 0 0 0 0 0 0 0 0 0 0 0 0 127 0" result="hardAlpha"/>
<feOffset dx="5" dy="5"/>
<feGaussianBlur stdDeviation="2"/>
<feComposite in2="hardAlpha" operator="arithmetic" k2="-1" k3="1"/>
<feColorMatrix type="matrix" values="0 0 0 0 1 0 0 0 0 1 0 0 0 0 1 0 0 0 0.1 0"/>
<feBlend mode="normal" in2="shape" result="effect1_innerShadow_217_1025"/>
<feColorMatrix in="SourceAlpha" type="matrix" values="0 0 0 0 0 0 0 0 0 0 0 0 0 0 0 0 0 0 127 0" result="hardAlpha"/>
<feOffset dx="-5" dy="-5"/>
<feGaussianBlur stdDeviation="125"/>
<feComposite in2="hardAlpha" operator="arithmetic" k2="-1" k3="1"/>
<feColorMatrix type="matrix" values="0 0 0 0 1 0 0 0 0 1 0 0 0 0 1 0 0 0 0.02 0"/>
<feBlend mode="normal" in2="effect1_innerShadow_217_1025" result="effect2_innerShadow_217_1025"/>
</filter>
<filter id="filter6_f_217_1025" x="-102.449" y="100.084" width="527.158" height="786.244" filterUnits="userSpaceOnUse" color-interpolation-filters="sRGB">
<feFlood flood-opacity="0" result="BackgroundImageFix"/>
<feBlend mode="normal" in="SourceGraphic" in2="BackgroundImageFix" result="shape"/>
<feGaussianBlur stdDeviation="60.8855" result="effect1_foregroundBlur_217_1025"/>
</filter>
<filter id="filter7_f_217_1025" x="254.567" y="-261.937" width="525.385" height="535.815" filterUnits="userSpaceOnUse" color-interpolation-filters="sRGB">
<feFlood flood-opacity="0" result="BackgroundImageFix"/>
<feBlend mode="normal" in="SourceGraphic" in2="BackgroundImageFix" result="shape"/>
<feGaussianBlur stdDeviation="60.8855" result="effect1_foregroundBlur_217_1025"/>
</filter>
<filter id="filter8_f_217_1025" x="325.229" y="24.229" width="527.542" height="582.542" filterUnits="userSpaceOnUse" color-interpolation-filters="sRGB">
<feFlood flood-opacity="0" result="BackgroundImageFix"/>
<feBlend mode="normal" in="SourceGraphic" in2="BackgroundImageFix" result="shape"/>
<feGaussianBlur stdDeviation="60.8855" result="effect1_foregroundBlur_217_1025"/>
</filter>
<filter id="filter9_f_217_1025" x="-294.771" y="-259.771" width="683.542" height="660.542" filterUnits="userSpaceOnUse" color-interpolation-filters="sRGB">
<feFlood flood-opacity="0" result="BackgroundImageFix"/>
<feBlend mode="normal" in="SourceGraphic" in2="BackgroundImageFix" result="shape"/>
<feGaussianBlur stdDeviation="60.8855" result="effect1_foregroundBlur_217_1025"/>
</filter>
</defs>
</svg>
