<svg width="482" height="482" viewBox="0 0 482 482" fill="none" xmlns="http://www.w3.org/2000/svg">
    <g opacity="0.95" filter="url(#filter0_bii_111_3283)">
        <g filter="url(#filter1_f_111_3283)">
            <mask id="mask0_111_3283" style="mask-type:alpha" maskUnits="userSpaceOnUse" x="74" y="74" width="334" height="333">
                <rect x="74.8982" y="74.7964" width="332.203" height="332.203" rx="8" fill="white"/>
            </mask>
            <g mask="url(#mask0_111_3283)">
                <rect x="74.8982" y="74.7964" width="332.203" height="332.203" rx="8" fill="white"/>
                <g filter="url(#filter2_f_111_3283)">
                    <ellipse cx="158.888" cy="452.849" rx="117.773" ry="225.36" fill="#EB5DC7"/>
                </g>
                <g filter="url(#filter3_f_111_3283)">
                    <ellipse cx="375.195" cy="204.454" rx="99.4733" ry="190.344" fill="#FFCEF1"/>
                </g>
                <g filter="url(#filter4_f_111_3283)">
                    <ellipse cx="317.482" cy="407.824" rx="117.773" ry="225.36" fill="#DE08A2"/>
                </g>
                <g filter="url(#filter5_f_111_3283)">
                    <ellipse cx="174.841" cy="1.51172" rx="158.125" ry="302.574" fill="#FF73AE"/>
                </g>
            </g>
        </g>
        <mask id="mask1_111_3283" style="mask-type:alpha" maskUnits="userSpaceOnUse" x="41" y="7" width="400" height="400">
            <rect x="41" y="7" width="400" height="400" rx="8" fill="white"/>
        </mask>
        <g mask="url(#mask1_111_3283)">
            <g filter="url(#filter6_b_111_3283)">
                <rect x="41" y="7" width="400" height="400" rx="8" fill="#E996C8"/>
            </g>
            <g filter="url(#filter7_f_111_3283)">
                <ellipse cx="142.13" cy="462.206" rx="141.808" ry="271.351" fill="#EB5DC7"/>
            </g>
            <g filter="url(#filter8_f_111_3283)">
                <ellipse cx="498.26" cy="-25.0291" rx="130.5" ry="155.5" transform="rotate(38.9743 498.26 -25.0291)" fill="#3066FF"/>
            </g>
            <g filter="url(#filter9_f_111_3283)">
                <ellipse cx="570" cy="284.5" rx="142" ry="169.5" fill="#00FFC2"/>
            </g>
            <g filter="url(#filter10_f_111_3283)">
                <ellipse cx="28" cy="39.5" rx="220" ry="208.5" fill="#B79BFF"/>
            </g>
        </g>
    </g>
    <path fill-rule="evenodd" clip-rule="evenodd" d="M182.407 156.194L136.008 79L136.008 79.0085L89.5706 156.194L117.746 172.698C117.366 174.191 117.164 175.755 117.164 177.366C117.164 177.835 117.182 178.301 117.215 178.761L86 160.473L135.94 232L135.994 231.923L136.048 232L185.988 160.473L154.785 178.754C154.818 178.296 154.835 177.833 154.835 177.366C154.835 175.751 154.632 174.183 154.25 172.687L182.407 156.194ZM152.528 168.317L174.119 155.671L144.017 142.022V160.301C147.631 162.005 150.615 164.825 152.528 168.317ZM144.017 136.926L173.402 150.25L137.803 91.2676V104.477C145.002 105.394 150.567 111.548 150.567 119.004C150.567 124.101 147.965 128.591 144.017 131.214V136.926ZM135.936 133.648C137.123 133.648 138.276 133.507 139.38 133.24V158.815C138.283 158.616 137.154 158.512 136 158.512C134.932 158.512 133.884 158.601 132.865 158.772V133.325C133.855 133.537 134.883 133.648 135.936 133.648ZM128.228 131.453C124.073 128.87 121.306 124.26 121.306 119.004C121.306 111.553 126.865 105.401 134.057 104.478V91.5774L98.6062 150.208L128.228 136.777V131.453ZM128.228 141.873L97.8317 155.655L119.466 168.327C121.421 164.751 124.501 161.879 128.228 160.187V141.873ZM142.028 195.234C140.135 195.874 138.108 196.22 136 196.22C133.836 196.22 131.758 195.855 129.823 195.183L129.823 215.027L135.994 223.837L142.028 215.222L142.028 195.234ZM123.934 191.844C124.337 192.182 124.755 192.502 125.186 192.806L125.186 208.406L119.131 199.76L123.934 191.844ZM120.656 188.304C119.926 187.28 119.295 186.178 118.779 185.015L101.238 174.254L113.464 191.744L113.499 191.719L116.224 195.609L120.656 188.304ZM146.665 192.909L146.665 208.601L152.784 199.864L147.967 191.926C147.548 192.272 147.113 192.6 146.665 192.909ZM158.489 191.719L155.691 195.714L151.263 188.416C152.029 187.357 152.689 186.215 153.225 185.006L170.75 174.254L158.524 191.744L158.489 191.719ZM135.936 129.007C141.455 129.007 145.93 124.528 145.93 119.004C145.93 113.479 141.455 109 135.936 109C130.417 109 125.943 113.479 125.943 119.004C125.943 124.528 130.417 129.007 135.936 129.007ZM150.198 177.366C150.198 185.215 143.841 191.578 136 191.578C128.158 191.578 121.802 185.215 121.802 177.366C121.802 169.517 128.158 163.154 136 163.154C143.841 163.154 150.198 169.517 150.198 177.366Z" fill="white"/>
    <path d="M197.16 151V112.676H223.368V118.604H203.66V127.964H221.652V133.892H203.66V145.072H223.368V151H197.16ZM236.877 151V118.604H226.217V112.676H254.037V118.604H243.377V151H236.877ZM258.479 151V112.676H264.979V128.068H281.775V112.676H288.275V151H281.775V133.788H264.979V151H258.479ZM196.52 197V193.64H211.04L213.2 191.44V185.56L211.04 183.36H199.64L195.48 179.2V171.72L199.64 167.52H215.32V170.88H201.28L199.08 173.08L199.12 177.96L201.28 180.16H212.68L216.84 184.36V192.8L212.68 197H196.52ZM222.408 197V167.52H226.048V179.88H240.648V167.52H244.288V197H240.648V183.12H226.048V197H222.408ZM247.877 197L257.837 167.52H263.477L273.437 197H269.637L267.117 189.32H254.197L251.717 197H247.877ZM255.277 186.12H266.077L261.117 170.96H260.197L255.277 186.12ZM277.077 197V167.52H282.037L295.197 191.24V167.52H298.837V197H294.517L281.597 173.72H280.717V197H277.077ZM308.748 197L304.628 192.8V171.72L308.828 167.52H322.828L326.908 171.6L324.588 173.96L321.388 170.76H310.468L308.268 172.96V191.56L310.468 193.76H319.308L323.868 189.52V184.72H317.068V181.52H326.908V197H323.868V193.6L320.228 197H308.748ZM333.425 197V167.52H337.065V179.88H351.665V167.52H355.305V197H351.665V183.12H337.065V197H333.425ZM358.894 197L368.854 167.52H374.494L384.454 197H380.654L378.134 189.32H365.214L362.734 197H358.894ZM366.294 186.12H377.094L372.134 170.96H371.214L366.294 186.12ZM387.094 197V193.64H390.694V170.88H387.094V167.52H397.934V170.88H394.334V193.64H397.934V197H387.094Z" fill="white"/>
    <path d="M79.2 285L73.8 267.864V258.468H84.132L85.536 278.304H87.012L88.416 258.468H96.84L98.244 278.304H99.756L101.16 258.468H111.456V267.864L106.092 285H95.076L92.664 278.844L90.18 285H79.2ZM117.435 285L113.439 281.58V269.592L117.435 266.172H130.575L134.571 269.592V277.44H122.943V279.708H134.391V285H117.435ZM122.943 273.876H126.255V269.556H122.943V273.876ZM137.2 285V258.468H146.704V267.72L148.864 266.172H155.632L159.628 269.592V281.58L155.632 285H148.576L146.704 283.704V285H137.2ZM149.008 281.796H150.16V269.664H148.864L146.704 271.284V280.392L149.008 281.796ZM174.599 285L171.179 281.004V276.684H181.295V279.708H186.443V274.38H178.163V268.548H186.443V263.76H181.295V266.712H171.179V262.464L174.599 258.468H193.355L196.775 262.464V268.548L193.823 271.464L196.775 274.344V281.004L193.355 285H174.599ZM200.013 285V278.268H207.861V285H200.013ZM215.443 285L211.447 281.58V261.888L215.443 258.468H233.155L237.151 261.888V281.58L233.155 285H215.443ZM221.707 279.492H226.891V263.976H221.707V279.492ZM249.42 285V278.052H262.452V274.884L252.3 274.848L248.304 271.464V261.888L252.3 258.468H271.128V265.344H258.24V268.26L268.428 268.296L272.424 271.68V281.58L268.428 285H249.42ZM278.664 285L274.668 281.58V266.172H284.136V281.508H285.288L287.484 279.852V266.172H296.952V285H287.484V283.38L285.18 285H278.664ZM299.765 285V266.172H309.233V267.792L311.537 266.172H318.233L321.005 268.548L324.389 266.172H331.085L335.081 269.592V285H325.649V269.664H324.497L322.229 271.248V285H312.797V269.664H311.645L309.233 271.392V285H299.765ZM337.726 285V266.172H347.194V267.792L349.498 266.172H356.194L358.966 268.548L362.35 266.172H369.046L373.042 269.592V285H363.61V269.664H362.458L360.19 271.248V285H350.758V269.664H349.606L347.194 271.392V285H337.726ZM375.686 264.3V258.612H385.154V264.3H375.686ZM375.686 285V266.172H385.154V285H375.686ZM392.123 285L388.091 281.58V270.456H386.975V266.172H388.415L391.619 259.98H397.595V266.172H400.259V270.456H397.595V280.68H400.835V285H392.123ZM77.4 327L73.404 323.58V303.888L77.4 300.468H94.896L98.892 303.888V311.592H88.38V305.976H83.664V321.492H88.452V315.768H99V323.58L95.004 327H77.4ZM101.63 327V308.172H111.098V310.512L113.618 308.172H117.146V315.264H111.098V327H101.63ZM119.462 333.732V328.656H130.19L131.378 327.648V325.56L129.65 326.748H122.594L118.598 323.364V308.172H128.066V323.544H129.218L131.378 322.212V308.172H140.846V328.8L136.238 333.732H119.462ZM143.66 333.732V308.172H153.164V309.72L155.288 308.172H162.092L166.088 311.592V323.58L162.092 327H155.036L153.164 325.74V333.732H143.66ZM155.468 323.796H156.62V311.664H155.288L153.164 313.248V322.392L155.468 323.796ZM172.894 327L168.862 323.58V312.456H167.746V308.172H169.186L172.39 301.98H178.366V308.172H181.03V312.456H178.366V322.68H181.606V327H172.894ZM187.256 327L183.26 323.58V311.592L187.256 308.172H201.548L205.544 311.592V323.58L201.548 327H187.256ZM192.764 323.616H196.076V311.556H192.764V323.616ZM220.919 327L216.923 323.58V303.888L220.919 300.468H238.415L242.411 303.888V311.592H231.899V305.976H227.183V321.492H231.971V315.768H242.519V323.58L238.523 327H220.919ZM245.149 306.3V300.612H254.617V306.3H245.149ZM245.149 327V308.172H254.617V327H245.149ZM261.586 327L257.554 323.58V312.456H256.438V308.172H257.878L261.082 301.98H267.058V308.172H269.722V312.456H267.058V322.68H270.298V327H261.586ZM272.816 333.732V328.656H283.544L284.732 327.648V325.56L283.004 326.748H275.948L271.952 323.364V308.172H281.42V323.544H282.572L284.732 322.212V308.172H294.2V328.8L289.592 333.732H272.816Z" fill="white"/>
    <defs>
        <filter id="filter0_bii_111_3283" x="-9" y="-43" width="500" height="500" filterUnits="userSpaceOnUse" color-interpolation-filters="sRGB">
            <feFlood flood-opacity="0" result="BackgroundImageFix"/>
            <feGaussianBlur in="BackgroundImage" stdDeviation="25"/>
            <feComposite in2="SourceAlpha" operator="in" result="effect1_backgroundBlur_111_3283"/>
            <feBlend mode="normal" in="SourceGraphic" in2="effect1_backgroundBlur_111_3283" result="shape"/>
            <feColorMatrix in="SourceAlpha" type="matrix" values="0 0 0 0 0 0 0 0 0 0 0 0 0 0 0 0 0 0 127 0" result="hardAlpha"/>
            <feOffset dx="5" dy="5"/>
            <feGaussianBlur stdDeviation="2"/>
            <feComposite in2="hardAlpha" operator="arithmetic" k2="-1" k3="1"/>
            <feColorMatrix type="matrix" values="0 0 0 0 1 0 0 0 0 1 0 0 0 0 1 0 0 0 0.1 0"/>
            <feBlend mode="normal" in2="shape" result="effect2_innerShadow_111_3283"/>
            <feColorMatrix in="SourceAlpha" type="matrix" values="0 0 0 0 0 0 0 0 0 0 0 0 0 0 0 0 0 0 127 0" result="hardAlpha"/>
            <feOffset dx="-5" dy="-5"/>
            <feGaussianBlur stdDeviation="125"/>
            <feComposite in2="hardAlpha" operator="arithmetic" k2="-1" k3="1"/>
            <feColorMatrix type="matrix" values="0 0 0 0 1 0 0 0 0 1 0 0 0 0 1 0 0 0 0.02 0"/>
            <feBlend mode="normal" in2="effect2_innerShadow_111_3283" result="effect3_innerShadow_111_3283"/>
        </filter>
        <filter id="filter1_f_111_3283" x="0.416862" y="0.315056" width="481.166" height="481.166" filterUnits="userSpaceOnUse" color-interpolation-filters="sRGB">
            <feFlood flood-opacity="0" result="BackgroundImageFix"/>
            <feBlend mode="normal" in="SourceGraphic" in2="BackgroundImageFix" result="shape"/>
            <feGaussianBlur stdDeviation="37.2407" result="effect1_foregroundBlur_111_3283"/>
        </filter>
        <filter id="filter2_f_111_3283" x="-80.6562" y="105.718" width="479.087" height="694.261" filterUnits="userSpaceOnUse" color-interpolation-filters="sRGB">
            <feFlood flood-opacity="0" result="BackgroundImageFix"/>
            <feBlend mode="normal" in="SourceGraphic" in2="BackgroundImageFix" result="shape"/>
            <feGaussianBlur stdDeviation="60.8855" result="effect1_foregroundBlur_111_3283"/>
        </filter>
        <filter id="filter3_f_111_3283" x="153.951" y="-107.66" width="442.489" height="624.229" filterUnits="userSpaceOnUse" color-interpolation-filters="sRGB">
            <feFlood flood-opacity="0" result="BackgroundImageFix"/>
            <feBlend mode="normal" in="SourceGraphic" in2="BackgroundImageFix" result="shape"/>
            <feGaussianBlur stdDeviation="60.8855" result="effect1_foregroundBlur_111_3283"/>
        </filter>
        <filter id="filter4_f_111_3283" x="77.938" y="60.6935" width="479.087" height="694.261" filterUnits="userSpaceOnUse" color-interpolation-filters="sRGB">
            <feFlood flood-opacity="0" result="BackgroundImageFix"/>
            <feBlend mode="normal" in="SourceGraphic" in2="BackgroundImageFix" result="shape"/>
            <feGaussianBlur stdDeviation="60.8855" result="effect1_foregroundBlur_111_3283"/>
        </filter>
        <filter id="filter5_f_111_3283" x="-105.055" y="-422.834" width="559.792" height="848.691" filterUnits="userSpaceOnUse" color-interpolation-filters="sRGB">
            <feFlood flood-opacity="0" result="BackgroundImageFix"/>
            <feBlend mode="normal" in="SourceGraphic" in2="BackgroundImageFix" result="shape"/>
            <feGaussianBlur stdDeviation="60.8855" result="effect1_foregroundBlur_111_3283"/>
        </filter>
        <filter id="filter6_b_111_3283" x="37" y="3" width="408" height="408" filterUnits="userSpaceOnUse" color-interpolation-filters="sRGB">
            <feFlood flood-opacity="0" result="BackgroundImageFix"/>
            <feGaussianBlur in="BackgroundImage" stdDeviation="2"/>
            <feComposite in2="SourceAlpha" operator="in" result="effect1_backgroundBlur_111_3283"/>
            <feBlend mode="normal" in="SourceGraphic" in2="effect1_backgroundBlur_111_3283" result="shape"/>
        </filter>
        <filter id="filter7_f_111_3283" x="-121.449" y="69.0832" width="527.158" height="786.245" filterUnits="userSpaceOnUse" color-interpolation-filters="sRGB">
            <feFlood flood-opacity="0" result="BackgroundImageFix"/>
            <feBlend mode="normal" in="SourceGraphic" in2="BackgroundImageFix" result="shape"/>
            <feGaussianBlur stdDeviation="60.8855" result="effect1_foregroundBlur_111_3283"/>
        </filter>
        <filter id="filter8_f_111_3283" x="235.567" y="-292.937" width="525.385" height="535.815" filterUnits="userSpaceOnUse" color-interpolation-filters="sRGB">
            <feFlood flood-opacity="0" result="BackgroundImageFix"/>
            <feBlend mode="normal" in="SourceGraphic" in2="BackgroundImageFix" result="shape"/>
            <feGaussianBlur stdDeviation="60.8855" result="effect1_foregroundBlur_111_3283"/>
        </filter>
        <filter id="filter9_f_111_3283" x="306.229" y="-6.77106" width="527.542" height="582.542" filterUnits="userSpaceOnUse" color-interpolation-filters="sRGB">
            <feFlood flood-opacity="0" result="BackgroundImageFix"/>
            <feBlend mode="normal" in="SourceGraphic" in2="BackgroundImageFix" result="shape"/>
            <feGaussianBlur stdDeviation="60.8855" result="effect1_foregroundBlur_111_3283"/>
        </filter>
        <filter id="filter10_f_111_3283" x="-313.771" y="-290.771" width="683.542" height="660.542" filterUnits="userSpaceOnUse" color-interpolation-filters="sRGB">
            <feFlood flood-opacity="0" result="BackgroundImageFix"/>
            <feBlend mode="normal" in="SourceGraphic" in2="BackgroundImageFix" result="shape"/>
            <feGaussianBlur stdDeviation="60.8855" result="effect1_foregroundBlur_111_3283"/>
        </filter>
    </defs>
</svg>
