<svg width="1408" height="840" viewBox="0 0 1408 840" fill="none" xmlns="http://www.w3.org/2000/svg">
<rect width="1408" height="840" fill="#DEC7FF"/>
<g clip-path="url(#clip0_8_92)">
<path d="M524.159 345.949H542.712V409.606H543.138C546.28 404.11 550.878 399.588 556.425 396.538C562.17 393.149 568.701 391.322 575.37 391.237C589.072 391.237 611.001 399.661 611.001 434.866V495.584H592.448V437.009C592.448 420.565 586.341 406.656 568.836 406.656C556.828 406.656 547.333 415.091 543.968 425.209C542.953 428.043 542.521 431.053 542.7 434.059V495.618H524.159V345.949Z" fill="#515150"/>
<path d="M697.636 495.618L696.161 482.758H695.528C689.846 490.825 678.876 497.935 664.333 497.935C643.671 497.935 633.138 483.392 633.138 468.63C633.138 443.969 655.033 430.475 694.479 430.682V428.574C694.479 420.15 692.174 404.973 671.293 404.973C661.909 405.002 652.716 407.626 644.731 412.556L640.548 400.329C648.983 394.844 661.21 391.271 674.059 391.271C705.265 391.271 712.848 412.556 712.848 433.01V471.165C712.713 479.35 713.28 487.531 714.542 495.618H697.636ZM694.894 443.543C674.658 443.128 651.691 446.712 651.691 466.521C651.691 478.54 659.7 484.233 669.184 484.233C674.577 484.381 679.876 482.804 684.312 479.733C688.747 476.661 692.086 472.255 693.845 467.155C694.499 465.255 694.853 463.264 694.894 461.255V443.543Z" fill="#515150"/>
<path d="M763.414 364.917C763.621 371.243 758.988 376.302 751.602 376.302C750.111 376.322 748.633 376.039 747.255 375.471C745.876 374.903 744.628 374.061 743.584 372.997C742.541 371.933 741.723 370.668 741.182 369.279C740.641 367.891 740.387 366.407 740.435 364.917C740.396 363.384 740.669 361.858 741.237 360.434C741.806 359.01 742.658 357.716 743.743 356.631C744.827 355.547 746.121 354.694 747.545 354.126C748.97 353.557 750.495 353.284 752.028 353.324C758.942 353.324 763.414 358.383 763.414 364.917ZM742.752 393.542H761.305V495.572H742.752V393.542Z" fill="#515150"/>
<path d="M792.084 421.198C792.084 410.666 791.866 402.023 791.232 393.542H807.641L808.702 410.401H809.117C814.21 400.755 826.079 391.237 842.881 391.237C857.009 391.237 878.927 399.661 878.927 434.658V495.584H860.374V436.813C860.374 420.369 854.266 406.667 836.773 406.667C824.547 406.667 815.063 415.31 811.894 425.635C811 428.427 810.572 431.347 810.626 434.278V495.63H792.084V421.198Z" fill="#515150"/>
<path d="M928.041 353.531H909.707V495.607H928.041V353.531Z" fill="#515150"/>
<path d="M960.088 355.433C972.995 353.478 986.03 352.492 999.085 352.483C1025.44 352.483 1044.2 358.59 1056.63 370.183C1069.31 381.776 1076.66 398.22 1076.66 421.198C1076.66 444.384 1069.49 463.364 1056.21 476.431C1042.93 489.707 1021.01 496.874 993.392 496.874C982.268 496.937 971.149 496.375 960.088 495.192V355.433ZM978.423 481.122C984.569 481.97 990.773 482.325 996.976 482.182C1036.16 482.182 1057.48 460.287 1057.48 421.89C1057.71 388.31 1038.71 367.037 999.926 367.037C992.711 366.921 985.505 367.558 978.423 368.938V481.122Z" fill="#515150"/>
<path d="M1174.05 429H1118.82V480.223H1180.38V495.607H1100.48V353.531H1177.22V368.927H1118.82V413.823H1174.05V429Z" fill="#515150"/>
<path d="M433.387 443.819C429.115 461.42 420.753 475.567 408.3 486.261C393.941 498.553 376.314 504.699 355.417 504.699C327.914 504.699 306.242 495.453 290.401 476.962C280.161 464.985 273.261 450.521 270.396 435.027H258.077C261.703 456.538 270.561 474.361 284.65 488.497C302.758 506.812 326.347 515.965 355.417 515.958C381.538 515.958 403.302 507.269 420.711 489.891C433.602 477.459 442.367 461.369 445.821 443.796L433.387 443.819Z" fill="#515150"/>
<path d="M417.634 443.819C414.15 455.248 407.512 465.462 398.481 473.286C386.604 483.488 372.031 488.585 354.761 488.577C332.028 488.577 314.113 480.933 301.014 465.645C288.791 451.44 282.676 433.387 282.668 411.484C282.668 390.019 289.198 371.965 302.259 357.323C315.78 342.035 333.261 334.391 354.703 334.391C370.068 334.391 383.309 338.174 394.425 345.741C400.666 349.826 405.994 355.158 410.074 361.402H421.379C416.969 352.497 410.484 344.782 402.469 338.908C389.662 329.643 373.759 325.01 354.761 325.01C328.433 325.01 307.713 334.433 292.602 353.278C279.365 369.488 272.743 388.871 272.735 411.426C272.735 438.154 280.579 459.392 296.266 475.141C311.239 490.283 330.738 497.85 354.761 497.843C376.356 497.843 394.344 490.663 408.726 476.305C417.961 467.385 424.665 456.175 428.155 443.819H417.634Z" fill="#515150"/>
<path d="M459.499 443.819C454.89 471.1 443.401 492.611 425.032 508.352C406.433 524.339 383.601 532.329 356.535 532.321C320.904 532.321 292.828 520.341 272.309 496.379C253.141 474.1 243.538 445.778 243.499 411.415C243.499 377.781 253.759 349.46 274.279 326.451C295.483 302.497 322.882 290.516 356.478 290.508C380.608 290.508 401.351 296.439 418.706 308.301C437.397 320.816 449.543 338.512 455.143 361.391H470.746C464.7 333.918 451.529 312.711 431.232 297.768C411.204 283.256 386.305 276 356.535 276C315.273 276 282.799 290.766 259.114 320.297C238.371 345.711 228 376.087 228 411.426C228 453.28 240.292 486.561 264.876 511.268C288.33 534.96 318.883 546.807 356.535 546.807C390.338 546.807 418.529 535.552 441.108 513.042C460.659 493.713 471.999 470.624 475.125 443.773L459.499 443.819Z" fill="#515150"/>
<path d="M427.878 361.402H440.382C434.908 345.661 425.862 333.054 413.128 323.697C397.64 312.488 378.403 306.88 355.417 306.872C323.566 306.872 298.498 318.273 280.214 341.074C269.13 354.562 261.623 370.625 258.388 387.78H270.638C273.94 372.167 281.297 357.7 291.968 345.834C308.332 327.334 329.481 318.084 355.417 318.084C374.047 318.084 390.065 322.663 403.471 331.821C414.393 339.007 422.898 349.314 427.878 361.402" fill="#515150"/>
<path d="M704.562 520.551C704.376 518.987 703.625 517.772 702.307 516.907C700.99 516.043 699.374 515.61 697.459 515.61C696.059 515.61 694.834 515.837 693.784 516.29C692.745 516.743 691.931 517.365 691.345 518.158C690.768 518.951 690.48 519.851 690.48 520.86C690.48 521.704 690.681 522.43 691.082 523.037C691.494 523.634 692.019 524.133 692.657 524.535C693.295 524.926 693.964 525.25 694.664 525.508C695.364 525.755 696.008 525.955 696.594 526.11L699.806 526.974C700.629 527.191 701.546 527.489 702.554 527.87C703.573 528.251 704.546 528.771 705.473 529.429C706.409 530.078 707.181 530.912 707.789 531.931C708.396 532.95 708.7 534.2 708.7 535.683C708.7 537.391 708.252 538.936 707.356 540.315C706.471 541.694 705.174 542.79 703.465 543.604C701.767 544.417 699.703 544.823 697.274 544.823C695.009 544.823 693.048 544.458 691.391 543.727C689.744 542.996 688.447 541.977 687.5 540.67C686.563 539.363 686.033 537.844 685.91 536.115H689.862C689.965 537.309 690.367 538.297 691.067 539.08C691.777 539.852 692.673 540.428 693.753 540.809C694.844 541.18 696.018 541.365 697.274 541.365C698.735 541.365 700.048 541.128 701.211 540.655C702.374 540.171 703.295 539.502 703.975 538.647C704.654 537.783 704.994 536.774 704.994 535.621C704.994 534.571 704.701 533.717 704.114 533.058C703.527 532.399 702.755 531.864 701.798 531.452C700.84 531.04 699.806 530.68 698.694 530.371L694.803 529.26C692.333 528.549 690.377 527.535 688.936 526.218C687.495 524.9 686.774 523.176 686.774 521.045C686.774 519.275 687.253 517.731 688.21 516.413C689.178 515.085 690.475 514.056 692.101 513.325C693.738 512.584 695.565 512.213 697.583 512.213C699.621 512.213 701.432 512.579 703.018 513.31C704.603 514.03 705.859 515.018 706.785 516.274C707.722 517.53 708.216 518.956 708.267 520.551H704.562ZM719.875 544.268L712.648 520.551H716.478L721.604 538.709H721.851L726.915 520.551H730.806L735.809 538.647H736.056L741.182 520.551H745.011L737.785 544.268H734.203L729.015 526.048H728.645L723.457 544.268H719.875ZM749.829 544.268V520.551H753.473V544.268H749.829ZM751.682 516.598C750.971 516.598 750.359 516.357 749.844 515.873C749.34 515.389 749.088 514.807 749.088 514.128C749.088 513.449 749.34 512.867 749.844 512.383C750.359 511.899 750.971 511.658 751.682 511.658C752.392 511.658 752.999 511.899 753.504 512.383C754.018 512.867 754.276 513.449 754.276 514.128C754.276 514.807 754.018 515.389 753.504 515.873C752.999 516.357 752.392 516.598 751.682 516.598ZM770.708 520.551V523.639H757.923V520.551H770.708ZM761.753 544.268V517.278C761.753 515.919 762.072 514.787 762.71 513.881C763.348 512.975 764.177 512.296 765.196 511.843C766.215 511.39 767.291 511.163 768.423 511.163C769.318 511.163 770.049 511.236 770.615 511.38C771.181 511.524 771.604 511.658 771.881 511.781L770.832 514.931C770.646 514.869 770.389 514.792 770.059 514.699C769.74 514.607 769.318 514.56 768.793 514.56C767.589 514.56 766.719 514.864 766.184 515.471C765.659 516.079 765.397 516.969 765.397 518.143V544.268H761.753ZM786.129 520.551V523.639H773.839V520.551H786.129ZM777.421 514.869H781.065V537.474C781.065 538.503 781.214 539.275 781.512 539.79C781.821 540.294 782.212 540.634 782.686 540.809C783.17 540.974 783.679 541.056 784.214 541.056C784.616 541.056 784.945 541.035 785.203 540.994C785.46 540.943 785.666 540.902 785.82 540.871L786.561 544.144C786.314 544.237 785.969 544.329 785.527 544.422C785.084 544.525 784.523 544.576 783.844 544.576C782.815 544.576 781.806 544.355 780.818 543.912C779.84 543.47 779.026 542.796 778.378 541.89C777.74 540.984 777.421 539.841 777.421 538.462V514.869ZM797.045 539.944L796.798 541.612C796.623 542.785 796.356 544.041 795.995 545.379C795.645 546.717 795.28 547.978 794.899 549.162C794.518 550.346 794.204 551.288 793.957 551.988H791.178C791.312 551.329 791.487 550.459 791.703 549.378C791.919 548.298 792.135 547.088 792.351 545.75C792.578 544.422 792.763 543.063 792.907 541.674L793.093 539.944H797.045ZM833.813 520.551C833.627 518.987 832.876 517.772 831.558 516.907C830.241 516.043 828.625 515.61 826.71 515.61C825.31 515.61 824.085 515.837 823.035 516.29C821.996 516.743 821.182 517.365 820.596 518.158C820.019 518.951 819.731 519.851 819.731 520.86C819.731 521.704 819.932 522.43 820.333 523.037C820.745 523.634 821.27 524.133 821.908 524.535C822.546 524.926 823.215 525.25 823.915 525.508C824.615 525.755 825.259 525.955 825.845 526.11L829.057 526.974C829.881 527.191 830.797 527.489 831.805 527.87C832.824 528.251 833.797 528.771 834.724 529.429C835.66 530.078 836.432 530.912 837.04 531.931C837.647 532.95 837.951 534.2 837.951 535.683C837.951 537.391 837.503 538.936 836.607 540.315C835.722 541.694 834.425 542.79 832.716 543.604C831.018 544.417 828.954 544.823 826.525 544.823C824.26 544.823 822.299 544.458 820.642 543.727C818.995 542.996 817.698 541.977 816.751 540.67C815.814 539.363 815.284 537.844 815.161 536.115H819.113C819.216 537.309 819.618 538.297 820.318 539.08C821.028 539.852 821.924 540.428 823.004 540.809C824.096 541.18 825.269 541.365 826.525 541.365C827.987 541.365 829.299 541.128 830.462 540.655C831.625 540.171 832.547 539.502 833.226 538.647C833.905 537.783 834.245 536.774 834.245 535.621C834.245 534.571 833.952 533.717 833.365 533.058C832.778 532.399 832.006 531.864 831.049 531.452C830.092 531.04 829.057 530.68 827.945 530.371L824.054 529.26C821.584 528.549 819.628 527.535 818.187 526.218C816.746 524.9 816.025 523.176 816.025 521.045C816.025 519.275 816.504 517.731 817.461 516.413C818.429 515.085 819.726 514.056 821.352 513.325C822.989 512.584 824.816 512.213 826.834 512.213C828.872 512.213 830.683 512.579 832.269 513.31C833.854 514.03 835.11 515.018 836.036 516.274C836.973 517.53 837.467 518.956 837.518 520.551H833.813ZM843.752 544.268V520.551H847.396V544.268H843.752ZM845.605 516.598C844.895 516.598 844.282 516.357 843.768 515.873C843.263 515.389 843.011 514.807 843.011 514.128C843.011 513.449 843.263 512.867 843.768 512.383C844.282 511.899 844.895 511.658 845.605 511.658C846.315 511.658 846.923 511.899 847.427 512.383C847.942 512.867 848.199 513.449 848.199 514.128C848.199 514.807 847.942 515.389 847.427 515.873C846.923 516.357 846.315 516.598 845.605 516.598ZM854.07 544.268V520.551H857.591V524.257H857.9C858.394 522.991 859.191 522.008 860.293 521.308C861.394 520.598 862.717 520.242 864.261 520.242C865.826 520.242 867.128 520.598 868.167 521.308C869.217 522.008 870.036 522.991 870.622 524.257H870.869C871.477 523.032 872.388 522.059 873.602 521.339C874.817 520.608 876.274 520.242 877.972 520.242C880.093 520.242 881.827 520.906 883.175 522.234C884.524 523.552 885.198 525.605 885.198 528.395V544.268H881.554V528.395C881.554 526.645 881.076 525.394 880.118 524.643C879.161 523.891 878.034 523.516 876.737 523.516C875.069 523.516 873.777 524.02 872.861 525.029C871.945 526.027 871.487 527.293 871.487 528.827V544.268H867.781V528.024C867.781 526.676 867.344 525.59 866.469 524.766C865.594 523.933 864.467 523.516 863.088 523.516C862.141 523.516 861.255 523.768 860.432 524.272C859.619 524.777 858.96 525.477 858.455 526.372C857.961 527.257 857.714 528.282 857.714 529.445V544.268H854.07ZM891.861 553.161V520.551H895.381V524.319H895.813C896.081 523.907 896.452 523.382 896.925 522.744C897.409 522.095 898.099 521.519 898.994 521.014C899.9 520.5 901.125 520.242 902.669 520.242C904.666 520.242 906.426 520.742 907.949 521.74C909.473 522.739 910.662 524.154 911.516 525.986C912.371 527.818 912.798 529.98 912.798 532.471C912.798 534.983 912.371 537.16 911.516 539.002C910.662 540.835 909.478 542.255 907.965 543.264C906.452 544.262 904.707 544.762 902.731 544.762C901.207 544.762 899.987 544.509 899.071 544.005C898.155 543.49 897.45 542.909 896.956 542.26C896.462 541.602 896.081 541.056 895.813 540.624H895.505V553.161H891.861ZM895.443 532.409C895.443 534.2 895.705 535.781 896.23 537.15C896.755 538.508 897.522 539.574 898.531 540.346C899.54 541.107 900.775 541.488 902.237 541.488C903.76 541.488 905.031 541.087 906.05 540.284C907.08 539.471 907.852 538.38 908.366 537.011C908.891 535.631 909.154 534.098 909.154 532.409C909.154 530.742 908.896 529.239 908.382 527.901C907.877 526.552 907.111 525.487 906.081 524.705C905.062 523.912 903.781 523.516 902.237 523.516C900.754 523.516 899.509 523.891 898.5 524.643C897.491 525.384 896.729 526.424 896.215 527.762C895.7 529.09 895.443 530.639 895.443 532.409ZM922 512.646V544.268H918.356V512.646H922ZM938.618 544.762C936.333 544.762 934.361 544.257 932.704 543.249C931.057 542.229 929.786 540.809 928.89 538.987C928.005 537.155 927.563 535.024 927.563 532.595C927.563 530.165 928.005 528.024 928.89 526.171C929.786 524.308 931.031 522.857 932.627 521.817C934.233 520.767 936.106 520.242 938.247 520.242C939.482 520.242 940.702 520.448 941.907 520.86C943.111 521.272 944.207 521.941 945.195 522.867C946.184 523.783 946.971 524.998 947.558 526.511C948.145 528.024 948.438 529.887 948.438 532.101V533.645H930.157V530.495H944.732C944.732 529.157 944.465 527.963 943.929 526.913C943.404 525.863 942.653 525.034 941.675 524.427C940.707 523.819 939.565 523.516 938.247 523.516C936.796 523.516 935.54 523.876 934.48 524.597C933.43 525.307 932.622 526.233 932.056 527.376C931.49 528.518 931.206 529.743 931.206 531.051V533.151C931.206 534.942 931.515 536.46 932.133 537.705C932.761 538.941 933.631 539.883 934.742 540.531C935.854 541.169 937.146 541.488 938.618 541.488C939.575 541.488 940.44 541.355 941.212 541.087C941.994 540.809 942.668 540.397 943.234 539.852C943.801 539.296 944.238 538.606 944.547 537.783L948.067 538.771C947.697 539.965 947.074 541.015 946.199 541.921C945.324 542.816 944.243 543.516 942.957 544.021C941.67 544.515 940.224 544.762 938.618 544.762ZM959.416 539.944L959.169 541.612C958.994 542.785 958.726 544.041 958.366 545.379C958.016 546.717 957.651 547.978 957.27 549.162C956.889 550.346 956.575 551.288 956.328 551.988H953.549C953.682 551.329 953.857 550.459 954.074 549.378C954.29 548.298 954.506 547.088 954.722 545.75C954.949 544.422 955.134 543.063 955.278 541.674L955.463 539.944H959.416ZM996.183 520.551C995.998 518.987 995.247 517.772 993.929 516.907C992.611 516.043 990.995 515.61 989.081 515.61C987.681 515.61 986.456 515.837 985.406 516.29C984.366 516.743 983.553 517.365 982.966 518.158C982.39 518.951 982.102 519.851 982.102 520.86C982.102 521.704 982.302 522.43 982.704 523.037C983.116 523.634 983.641 524.133 984.279 524.535C984.917 524.926 985.586 525.25 986.286 525.508C986.986 525.755 987.629 525.955 988.216 526.11L991.428 526.974C992.251 527.191 993.167 527.489 994.176 527.87C995.195 528.251 996.168 528.771 997.094 529.429C998.031 530.078 998.803 530.912 999.41 531.931C1000.02 532.95 1000.32 534.2 1000.32 535.683C1000.32 537.391 999.874 538.936 998.978 540.315C998.093 541.694 996.796 542.79 995.087 543.604C993.389 544.417 991.325 544.823 988.895 544.823C986.631 544.823 984.67 544.458 983.013 543.727C981.366 542.996 980.069 541.977 979.122 540.67C978.185 539.363 977.655 537.844 977.531 536.115H981.484C981.587 537.309 981.988 538.297 982.688 539.08C983.399 539.852 984.294 540.428 985.375 540.809C986.466 541.18 987.64 541.365 988.895 541.365C990.357 541.365 991.67 541.128 992.833 540.655C993.996 540.171 994.917 539.502 995.597 538.647C996.276 537.783 996.616 536.774 996.616 535.621C996.616 534.571 996.322 533.717 995.736 533.058C995.149 532.399 994.377 531.864 993.419 531.452C992.462 531.04 991.428 530.68 990.316 530.371L986.425 529.26C983.955 528.549 981.999 527.535 980.558 526.218C979.117 524.9 978.396 523.176 978.396 521.045C978.396 519.275 978.875 517.731 979.832 516.413C980.8 515.085 982.097 514.056 983.723 513.325C985.36 512.584 987.187 512.213 989.204 512.213C991.242 512.213 993.054 512.579 994.639 513.31C996.224 514.03 997.48 515.018 998.407 516.274C999.343 517.53 999.837 518.956 999.889 520.551H996.183ZM1006.12 544.268V520.551H1009.64V524.257H1009.95C1010.45 522.991 1011.24 522.008 1012.35 521.308C1013.45 520.598 1014.77 520.242 1016.31 520.242C1017.88 520.242 1019.18 520.598 1020.22 521.308C1021.27 522.008 1022.09 522.991 1022.68 524.257H1022.92C1023.53 523.032 1024.44 522.059 1025.66 521.339C1026.87 520.608 1028.33 520.242 1030.02 520.242C1032.15 520.242 1033.88 520.906 1035.23 522.234C1036.58 523.552 1037.25 525.605 1037.25 528.395V544.268H1033.61V528.395C1033.61 526.645 1033.13 525.394 1032.17 524.643C1031.21 523.891 1030.09 523.516 1028.79 523.516C1027.12 523.516 1025.83 524.02 1024.91 525.029C1024 526.027 1023.54 527.293 1023.54 528.827V544.268H1019.83V528.024C1019.83 526.676 1019.4 525.59 1018.52 524.766C1017.65 523.933 1016.52 523.516 1015.14 523.516C1014.19 523.516 1013.31 523.768 1012.48 524.272C1011.67 524.777 1011.01 525.477 1010.51 526.372C1010.01 527.257 1009.77 528.282 1009.77 529.445V544.268H1006.12ZM1050.89 544.823C1049.39 544.823 1048.03 544.54 1046.8 543.974C1045.58 543.398 1044.6 542.569 1043.88 541.488C1043.16 540.397 1042.8 539.08 1042.8 537.536C1042.8 536.177 1043.07 535.075 1043.6 534.231C1044.14 533.377 1044.86 532.708 1045.75 532.224C1046.65 531.74 1047.63 531.38 1048.72 531.143C1049.81 530.896 1050.9 530.701 1052 530.557C1053.45 530.371 1054.61 530.232 1055.51 530.14C1056.41 530.037 1057.07 529.867 1057.49 529.63C1057.91 529.393 1058.12 528.982 1058.12 528.395V528.271C1058.12 526.748 1057.7 525.564 1056.87 524.72C1056.04 523.876 1054.79 523.454 1053.12 523.454C1051.38 523.454 1050.01 523.835 1049.02 524.597C1048.04 525.358 1047.34 526.171 1046.94 527.036L1043.48 525.801C1044.1 524.36 1044.92 523.238 1045.95 522.435C1046.99 521.622 1048.12 521.056 1049.35 520.736C1050.58 520.407 1051.8 520.242 1052.99 520.242C1053.75 520.242 1054.63 520.335 1055.62 520.52C1056.62 520.695 1057.58 521.061 1058.5 521.617C1059.44 522.172 1060.22 523.011 1060.84 524.133C1061.45 525.255 1061.76 526.758 1061.76 528.642V544.268H1058.12V541.056H1057.93C1057.69 541.571 1057.27 542.121 1056.7 542.708C1056.12 543.295 1055.35 543.794 1054.4 544.206C1053.44 544.618 1052.27 544.823 1050.89 544.823ZM1051.45 541.55C1052.89 541.55 1054.1 541.267 1055.09 540.701C1056.09 540.135 1056.84 539.404 1057.35 538.508C1057.86 537.613 1058.12 536.671 1058.12 535.683V532.348C1057.96 532.533 1057.62 532.703 1057.1 532.857C1056.58 533.001 1055.99 533.13 1055.31 533.243C1054.64 533.346 1053.99 533.439 1053.35 533.521C1052.72 533.593 1052.21 533.655 1051.82 533.706C1050.87 533.83 1049.99 534.031 1049.16 534.309C1048.35 534.576 1047.69 534.983 1047.19 535.528C1046.69 536.064 1046.45 536.794 1046.45 537.721C1046.45 538.987 1046.91 539.944 1047.85 540.593C1048.8 541.231 1050 541.55 1051.45 541.55ZM1068.41 544.268V520.551H1071.93V524.133H1072.18C1072.61 522.96 1073.4 522.008 1074.53 521.277C1075.66 520.546 1076.94 520.181 1078.36 520.181C1078.62 520.181 1078.96 520.186 1079.36 520.196C1079.76 520.206 1080.07 520.222 1080.27 520.242V523.948C1080.15 523.917 1079.86 523.871 1079.42 523.809C1078.99 523.737 1078.53 523.701 1078.05 523.701C1076.9 523.701 1075.87 523.943 1074.96 524.427C1074.06 524.9 1073.35 525.559 1072.83 526.403C1072.31 527.237 1072.06 528.189 1072.06 529.26V544.268H1068.41ZM1096.39 520.551V523.639H1084.1V520.551H1096.39ZM1087.68 514.869H1091.33V537.474C1091.33 538.503 1091.48 539.275 1091.77 539.79C1092.08 540.294 1092.47 540.634 1092.95 540.809C1093.43 540.974 1093.94 541.056 1094.48 541.056C1094.88 541.056 1095.21 541.035 1095.46 540.994C1095.72 540.943 1095.93 540.902 1096.08 540.871L1096.82 544.144C1096.58 544.237 1096.23 544.329 1095.79 544.422C1095.35 544.525 1094.79 544.576 1094.11 544.576C1093.08 544.576 1092.07 544.355 1091.08 543.912C1090.1 543.47 1089.29 542.796 1088.64 541.89C1088 540.984 1087.68 539.841 1087.68 538.462V514.869Z" fill="#515150"/>
</g>
<defs>
<clipPath id="clip0_8_92">
<rect width="952.375" height="288" fill="white" transform="translate(228 276)"/>
</clipPath>
</defs>
</svg>
