<svg width="200" height="200" viewBox="0 0 200 200" fill="none" xmlns="http://www.w3.org/2000/svg">
<circle cx="100" cy="100" r="100" fill="white" fill-opacity="0.16"/>
<path d="M141.886 62.56C134.128 59.02 125.89 56.44 117.29 55C116.207 56.86 115.005 59.38 114.163 61.36C105.016 60.04 95.9351 60.04 86.9145 61.36C86.0725 59.38 84.8096 56.86 83.7872 55C75.1276 56.44 66.8888 59.02 59.1852 62.56C43.6097 85.4799 39.4001 107.86 41.5049 129.94C51.8485 137.44 61.8313 142 71.6397 145C74.0452 141.76 76.2102 138.28 78.0744 134.62C74.5263 133.3 71.1586 131.68 67.9112 129.76C68.7532 129.16 69.5951 128.5 70.3769 127.84C89.9816 136.78 111.216 136.78 130.58 127.84C131.422 128.5 132.204 129.16 133.046 129.76C129.798 131.68 126.431 133.3 122.883 134.62C124.747 138.28 126.912 141.76 129.317 145C139.12 142 149.163 137.44 159.452 129.94C162.038 104.38 155.357 82.1801 141.886 62.56ZM80.7806 116.32C74.8871 116.32 70.0761 110.98 70.0761 104.44C70.0761 97.9001 74.7668 92.5598 80.7806 92.5598C86.734 92.5598 91.605 97.9001 91.4847 104.44C91.4847 110.98 86.734 116.32 80.7806 116.32ZM120.297 116.32C114.403 116.32 109.586 110.98 109.586 104.44C109.586 97.9001 114.283 92.5598 120.297 92.5598C126.25 92.5598 131.121 97.9001 131.001 104.44C131.001 110.98 126.311 116.32 120.297 116.32Z" fill="#F6F6F6" fill-opacity="0.6"/>
</svg>
