<svg width="128" height="128" viewBox="0 0 128 128" fill="none" xmlns="http://www.w3.org/2000/svg">
<rect width="128" height="128" fill="#3F3182"/>
<path fill-rule="evenodd" clip-rule="evenodd" d="M47.0359 35.2197C37.4098 51.1694 29.4347 64.3764 29.3133 64.5683C29.1005 64.9049 29.4636 65.1342 39.6359 71.0872C45.4344 74.4808 50.2741 77.3445 50.3903 77.4509C50.5588 77.605 50.5623 77.8271 50.407 78.5437C50.2999 79.0383 50.2047 80.0532 50.1956 80.7988L50.1789 82.1548L49.4349 81.7235C49.0258 81.4862 43.7943 78.393 37.8096 74.8495C31.8249 71.3058 26.9065 68.4325 26.8801 68.4641C26.8183 68.5379 64.5344 122.704 64.6446 122.7C64.7584 122.696 102.458 68.5367 102.4 68.4605C102.375 68.4269 97.1612 71.4721 90.8148 75.2279C84.4683 78.9837 79.2385 82.0758 79.1931 82.0992C79.1476 82.1227 79.0968 81.4973 79.0801 80.7097C79.0634 79.922 78.969 78.919 78.8703 78.4809C78.7716 78.0427 78.7278 77.6242 78.7731 77.5509C78.8183 77.4776 83.6533 74.6049 89.5175 71.1672L100.18 64.9166L99.8123 64.3074C84.488 38.8845 64.7063 6.22 64.6346 6.22C64.5813 6.22 56.6619 19.2699 47.0359 35.2197ZM63.1567 20.5305V25.4089L62.7021 25.5056C58.4434 26.411 55.255 29.1948 53.9651 33.1338C53.5435 34.4216 53.4853 34.8397 53.4857 36.5848C53.486 38.6649 53.7609 39.8937 54.5943 41.5374C55.3918 43.1104 56.8888 44.8391 58.2134 45.7165L58.8583 46.1437L58.8542 48.2315L58.8499 50.3193L47.4882 55.468C41.2392 58.2996 36.1003 60.5944 36.0686 60.5673C36.0142 60.5211 63.0266 15.6682 63.1154 15.6573C63.138 15.6544 63.1567 17.8473 63.1567 20.5305ZM79.6553 37.9871C86.8784 49.9526 92.8221 59.8312 92.8636 59.9393C92.9051 60.0475 87.8933 57.8463 81.7263 55.048L70.5136 49.9599L70.4673 48.0558L70.4209 46.1517L71.0906 45.6872C72.0496 45.022 73.8095 43.1057 74.3962 42.0881C76.4718 38.4881 76.2996 33.9098 73.9546 30.3441C72.351 27.9056 69.7303 26.185 66.5872 25.507L66.1325 25.4089L66.1375 20.4892C66.1415 16.7022 66.1863 15.6457 66.3324 15.9003C66.4367 16.0824 72.432 26.0213 79.6553 37.9871ZM66.1542 29.1285C68.4514 29.6158 70.3448 31.0611 71.348 33.0931C72.8306 36.0957 72.395 39.2118 70.1535 41.635C67.1099 44.9255 62.2531 44.9569 59.141 41.7063C55.6688 38.0794 56.7366 32.0197 61.2403 29.7917C62.9988 28.9218 64.3318 28.7419 66.1542 29.1285ZM64.562 47.6717C65.3803 47.6717 66.366 47.615 66.7525 47.5456L67.4551 47.4195V57.0605V66.7015H64.6446H61.8341V57.055V47.4085L62.4541 47.5402C62.7952 47.6125 63.7436 47.6717 64.562 47.6717ZM58.8583 60.6525V67.759L57.7212 68.357C55.7142 69.4128 53.4078 71.5904 52.3694 73.4105C52.1647 73.7689 51.9449 74.0445 51.8807 74.0224C51.5484 73.9086 35.3856 64.3701 35.3841 64.287C35.383 64.2155 58.5536 53.6024 58.817 53.5537C58.8397 53.5496 58.8583 56.7439 58.8583 60.6525ZM82.0078 59.1779C88.2311 62.0023 93.3791 64.3696 93.4479 64.4384C93.5398 64.5304 78.0594 73.7746 77.3985 74.0224C77.3398 74.0445 77.1245 73.7689 76.9199 73.4105C75.8987 71.6207 73.6633 69.519 71.5469 68.3585L70.4309 67.7466V60.8946C70.4309 57.126 70.49 54.0425 70.5619 54.0425C70.634 54.0425 75.7846 56.3534 82.0078 59.1779ZM67.2184 70.593C70.7495 71.4969 73.5025 73.9937 74.8429 77.5075C75.4093 78.9928 75.5641 81.8933 75.1623 83.4973C74.232 87.2115 71.5323 90.1089 67.8016 91.3966C66.7307 91.7663 66.266 91.83 64.6446 91.83C63.0031 91.83 62.5627 91.7681 61.4208 91.3759C56.846 89.8052 53.8535 85.7398 53.8553 81.0979C53.8581 74.0577 60.4648 68.8642 67.2184 70.593ZM45.3263 83.2032C51.2813 86.8263 51.3925 86.9038 51.8068 87.7169C52.0386 88.172 52.3775 88.7693 52.5599 89.0442L52.8913 89.5441L51.2234 92.2427C49.859 94.4499 49.5174 94.9012 49.346 94.7213C49.1537 94.5194 38.6203 79.5897 38.2779 79.0339C38.1839 78.881 38.3401 78.9255 38.6977 79.1537C39.0111 79.3536 41.9941 81.1758 45.3263 83.2032ZM90.9778 79.0708C90.8903 79.1846 88.3419 82.8013 85.3148 87.1078C82.2877 91.4143 79.7518 94.8769 79.6796 94.8024C79.6074 94.7279 78.8373 93.522 77.9685 92.1225L76.3887 89.5782L76.8088 88.8957C77.0399 88.5204 77.3801 87.9155 77.5648 87.5514C77.8696 86.9507 78.5066 86.5192 84.4571 82.8833C88.0633 80.68 91.0414 78.8744 91.0751 78.8706C91.109 78.8669 91.0652 78.9571 90.9778 79.0708ZM56.3785 98.846V104.74L54.1532 101.606C52.9294 99.883 51.925 98.3817 51.9214 98.2701C51.9177 98.1586 52.7146 96.7714 53.692 95.1873L55.4692 92.3072L55.9239 92.6295L56.3785 92.9519V98.846ZM75.6226 95.2586C76.5861 96.8128 77.3745 98.1548 77.3745 98.241C77.3745 98.3271 76.3702 99.82 75.1426 101.558L72.9108 104.719V98.8336V92.9481L73.2783 92.6906C73.4803 92.549 73.6962 92.433 73.7581 92.433C73.8199 92.433 74.6589 93.7045 75.6226 95.2586ZM64.6446 95.4613C66.3511 95.4613 67.1587 95.3844 68.0751 95.1347L69.2737 94.8082L69.272 102.349L69.2704 109.891L67.1103 112.95C65.9223 114.633 64.8734 116.102 64.7797 116.215C64.6534 116.368 64.0141 115.577 62.3124 113.163L60.0156 109.906V102.357V94.8082L61.2142 95.1347C62.1306 95.3844 62.9382 95.4613 64.6446 95.4613Z" fill="white"/>
</svg>
