<svg width="1167" height="94" viewBox="0 0 1167 94" fill="none" xmlns="http://www.w3.org/2000/svg">
<path d="M166.031 60.7904C165.823 60.3841 165.647 59.9167 165.502 59.3883C165.357 58.8599 165.232 58.3011 165.129 57.7118C164.652 58.2199 164.102 58.6975 163.481 59.1444C162.859 59.5916 162.164 59.9877 161.397 60.3331C160.651 60.6585 159.821 60.9122 158.909 61.0952C157.997 61.2985 157.012 61.4 155.955 61.4C154.234 61.4 152.648 61.1561 151.197 60.6686C149.766 60.1809 148.533 59.4999 147.496 58.6262C146.46 57.7524 145.651 56.7162 145.071 55.5171C144.49 54.2979 144.2 52.9769 144.2 51.5545C144.2 48.0797 145.517 45.3975 148.15 43.5076C150.803 41.5973 154.753 40.6424 159.998 40.6424H164.818V38.6915C164.818 37.1064 164.289 35.8568 163.232 34.9424C162.174 34.0074 160.651 33.5402 158.66 33.5402C156.898 33.5402 155.613 33.9161 154.804 34.6681C153.996 35.3994 153.592 36.3851 153.592 37.6246H144.946C144.946 36.2225 145.257 34.8913 145.879 33.6316C146.522 32.3715 147.444 31.2643 148.647 30.309C149.87 29.3541 151.353 28.6022 153.094 28.0535C154.856 27.4845 156.867 27.2 159.127 27.2C161.159 27.2 163.045 27.4439 164.787 27.9316C166.549 28.4193 168.073 29.1406 169.358 30.0956C170.643 31.0509 171.649 32.2599 172.375 33.7229C173.1 35.1657 173.463 36.8422 173.463 38.7524V52.8957C173.463 54.6636 173.577 56.1269 173.805 57.2852C174.033 58.4435 174.365 59.439 174.8 60.2722V60.7904H166.031ZM157.79 54.8466C158.66 54.8466 159.469 54.7451 160.215 54.5418C160.962 54.3385 161.635 54.0743 162.237 53.7492C162.838 53.4241 163.356 53.0584 163.792 52.6519C164.227 52.2253 164.569 51.7984 164.818 51.3718V45.7023H160.402C159.054 45.7023 157.904 45.8342 156.95 46.0984C155.996 46.3423 155.219 46.6979 154.618 47.1653C154.016 47.6122 153.571 48.1609 153.28 48.8114C152.99 49.4413 152.845 50.132 152.845 50.884C152.845 52.022 153.249 52.9668 154.058 53.7188C154.887 54.4707 156.131 54.8466 157.79 54.8466Z" fill="white"/>
<path d="M206.466 27.2C207.735 27.2 208.904 27.2931 209.971 27.4793C211.059 27.6448 211.935 27.831 212.6 28.0379L211.361 36.6345C210.253 36.3655 209.115 36.1689 207.947 36.0449C206.798 35.8999 205.701 35.8275 204.653 35.8275C202.296 35.8275 200.403 36.2932 198.973 37.2241C197.562 38.1551 196.505 39.4897 195.8 41.2276V61.4H187.4V27.8207H195.226L195.619 33.3137C196.948 31.4104 198.54 29.9208 200.393 28.8449C202.246 27.7483 204.27 27.2 206.466 27.2Z" fill="white"/>
<path d="M243.122 50.6847L246.052 27.2H254L247.953 61.4H240.348L235.922 39.6537L231.652 61.4H224.047L218 27.2H225.917L228.847 50.7797L233.086 27.2H238.883L243.122 50.6847Z" fill="white"/>
<path d="M276.085 61.4C273.575 61.4 271.297 60.9836 269.249 60.1504C267.201 59.3172 265.444 58.1894 263.978 56.767C262.512 55.3242 261.378 53.6376 260.575 51.707C259.791 49.7562 259.4 47.6734 259.4 45.4584V44.2389C259.4 41.7194 259.791 39.4229 260.575 37.3503C261.358 35.2573 262.452 33.4587 263.858 31.9551C265.263 30.4514 266.93 29.283 268.857 28.4497C270.784 27.6166 272.883 27.2 275.152 27.2C277.501 27.2 279.589 27.5963 281.416 28.3888C283.264 29.1609 284.82 30.2583 286.085 31.6808C287.37 33.1032 288.343 34.8203 289.006 36.832C289.669 38.8235 290 41.0283 290 43.4467V47.0432H267.893C268.054 48.1609 268.375 49.1872 268.857 50.1219C269.359 51.0366 269.992 51.8288 270.754 52.4996C271.517 53.1701 272.391 53.6883 273.375 54.054C274.359 54.42 275.433 54.6027 276.597 54.6027C277.421 54.6027 278.234 54.5215 279.037 54.3588C279.86 54.1964 280.643 53.9627 281.386 53.6579C282.129 53.3328 282.822 52.9363 283.464 52.4692C284.107 52.0017 284.669 51.453 285.151 50.8231L289.337 55.3953C288.815 56.1472 288.133 56.8888 287.29 57.6204C286.466 58.3315 285.482 58.9718 284.338 59.5408C283.213 60.0895 281.958 60.5364 280.573 60.8818C279.188 61.2275 277.692 61.4 276.085 61.4ZM275.092 34.0582C274.148 34.0582 273.284 34.231 272.501 34.5764C271.718 34.9015 271.025 35.3791 270.423 36.009C269.841 36.6392 269.349 37.3909 268.947 38.2646C268.546 39.1384 268.245 40.114 268.044 41.191H281.778V40.5203C281.738 39.6262 281.567 38.7829 281.266 37.9903C280.965 37.198 280.533 36.5171 279.971 35.9481C279.408 35.3588 278.716 34.9015 277.893 34.5764C277.089 34.231 276.156 34.0582 275.092 34.0582Z" fill="white"/>
<path d="M319.031 60.7904C318.824 60.3841 318.648 59.9167 318.502 59.3883C318.358 58.8599 318.234 58.3011 318.13 57.7118C317.652 58.2199 317.104 58.6975 316.482 59.1444C315.858 59.5916 315.163 59.9877 314.399 60.3331C313.65 60.6585 312.821 60.9122 311.911 61.0952C310.997 61.2985 310.013 61.4 308.956 61.4C307.236 61.4 305.649 61.1561 304.196 60.6686C302.768 60.1809 301.533 59.4999 300.496 58.6262C299.46 57.7524 298.651 56.7162 298.071 55.5171C297.49 54.2979 297.2 52.9769 297.2 51.5545C297.2 48.0797 298.516 45.3975 301.149 43.5076C303.803 41.5973 307.753 40.6424 312.998 40.6424H317.819V38.6915C317.819 37.1064 317.289 35.8568 316.233 34.9424C315.176 34.0074 313.65 33.5402 311.661 33.5402C309.897 33.5402 308.612 33.9161 307.805 34.6681C306.995 35.3994 306.593 36.3851 306.593 37.6246H297.946C297.946 36.2225 298.257 34.8913 298.879 33.6316C299.522 32.3715 300.445 31.2643 301.647 30.309C302.871 29.3541 304.351 28.6022 306.093 28.0535C307.857 27.4845 309.867 27.2 312.127 27.2C314.158 27.2 316.047 27.4439 317.789 27.9316C319.549 28.4193 321.072 29.1406 322.357 30.0956C323.646 31.0509 324.651 32.2599 325.376 33.7229C326.101 35.1657 326.463 36.8422 326.463 38.7524V52.8957C326.463 54.6636 326.579 56.1269 326.807 57.2852C327.036 58.4435 327.364 59.439 327.8 60.2722V60.7904H319.031ZM310.79 54.8466C311.661 54.8466 312.468 54.7451 313.217 54.5418C313.963 54.3385 314.637 54.0743 315.237 53.7492C315.84 53.4241 316.357 53.0584 316.793 52.6519C317.228 52.2253 317.57 51.7984 317.819 51.3718V45.7023H313.403C312.054 45.7023 310.906 45.8342 309.949 46.0984C308.996 46.3423 308.219 46.6979 307.619 47.1653C307.016 47.6122 306.572 48.1609 306.282 48.8114C305.99 49.4413 305.847 50.132 305.847 50.884C305.847 52.022 306.249 52.9668 307.059 53.7188C307.887 54.4707 309.133 54.8466 310.79 54.8466Z" fill="white"/>
<path d="M349.876 51.2537L350.317 53.7193L350.758 51.3487L358.26 27.2H367.4L354.444 61.4H346.218L333.2 27.2H342.34L349.876 51.2537Z" fill="white"/>
<path d="M390.468 61.4C387.81 61.4 385.396 60.9836 383.228 60.1504C381.058 59.3172 379.199 58.1894 377.647 56.767C376.095 55.3242 374.893 53.6376 374.043 51.707C373.215 49.7562 372.8 47.6734 372.8 45.4584V44.2389C372.8 41.7194 373.215 39.4229 374.043 37.3503C374.874 35.2573 376.032 33.4587 377.519 31.9551C379.009 30.4514 380.773 29.283 382.813 28.4497C384.856 27.6166 387.076 27.2 389.478 27.2C391.967 27.2 394.175 27.5963 396.111 28.3888C398.067 29.1609 399.716 30.2583 401.055 31.6808C402.414 33.1032 403.445 34.8203 404.147 36.832C404.85 38.8235 405.2 41.0283 405.2 43.4467V47.0432H381.792C381.963 48.1609 382.304 49.1872 382.813 50.1219C383.344 51.0366 384.015 51.8288 384.821 52.4996C385.63 53.1701 386.555 53.6883 387.598 54.054C388.638 54.42 389.775 54.6027 391.008 54.6027C391.88 54.6027 392.742 54.5215 393.591 54.3588C394.462 54.1964 395.293 53.9627 396.08 53.6579C396.867 53.3328 397.598 52.9363 398.279 52.4692C398.96 52.0017 399.556 51.453 400.065 50.8231L404.497 55.3953C403.944 56.1472 403.223 56.8888 402.33 57.6204C401.458 58.3315 400.415 58.9718 399.203 59.5408C398.013 60.0895 396.686 60.5364 395.218 60.8818C393.75 61.2275 392.167 61.4 390.468 61.4ZM389.415 34.0582C388.416 34.0582 387.501 34.231 386.673 34.5764C385.842 34.9015 385.108 35.3791 384.471 36.009C383.856 36.6392 383.335 37.3909 382.91 38.2646C382.485 39.1384 382.163 40.114 381.951 41.191H396.493V40.5203C396.452 39.6262 396.271 38.7829 395.952 37.9903C395.634 37.198 395.175 36.5171 394.581 35.9481C393.985 35.3588 393.251 34.9015 392.379 34.5764C391.53 34.231 390.54 34.0582 389.415 34.0582Z" fill="white"/>
<path d="M47 92C71.8528 92 92 71.8528 92 47C92 22.1472 71.8528 2 47 2C22.1472 2 2 22.1472 2 47C2 71.8528 22.1472 92 47 92Z" stroke="white" stroke-width="2.5"/>
<path d="M55.7144 62.5581C55.4949 62.1303 55.3084 61.6383 55.1549 61.0823C55.0011 60.526 54.8695 59.9378 54.7597 59.3175C54.2548 59.8522 53.6731 60.355 53.0146 60.8254C52.3559 61.2962 51.6206 61.7134 50.8084 62.0769C50.0183 62.419 49.14 62.6867 48.1742 62.8789C47.2084 63.0928 46.1659 63.2 45.0462 63.2C43.2244 63.2 41.545 62.9432 40.0086 62.4298C38.4937 61.9165 37.1876 61.2 36.0902 60.2802C34.9925 59.3604 34.1364 58.2694 33.5217 57.0075C32.907 55.7239 32.6 54.3337 32.6 52.8363C32.6 49.1785 33.9937 46.3551 36.7816 44.3657C39.5915 42.3552 43.7731 41.3498 49.3268 41.3498H54.4305V39.2963C54.4305 37.6276 53.8707 36.3122 52.7511 35.3498C51.6317 34.3657 50.0183 33.8737 47.911 33.8737C46.045 33.8737 44.684 34.2696 43.828 35.0608C42.9719 35.831 42.5437 36.8686 42.5437 38.1731H33.3901C33.3901 36.6973 33.7193 35.2963 34.3778 33.9701C35.0584 32.6439 36.0353 31.4781 37.3085 30.4727C38.6035 29.4673 40.1732 28.6761 42.0169 28.0984C43.8829 27.4995 46.012 27.2 48.4048 27.2C50.5559 27.2 52.5535 27.4567 54.3975 27.9701C56.2634 28.4834 57.8766 29.2429 59.2376 30.248C60.5986 31.2534 61.6633 32.5261 62.4315 34.0662C63.2 35.585 63.5841 37.3498 63.5841 39.3603V54.2481C63.5841 56.109 63.7047 57.6491 63.9464 58.8684C64.1877 60.0877 64.5388 61.1357 65 62.0126V62.5581H55.7144ZM46.9889 56.3016C47.911 56.3016 48.767 56.1947 49.5571 55.9808C50.3475 55.7666 51.0608 55.4887 51.6974 55.1463C52.334 54.8042 52.8827 54.4191 53.3439 53.9913C53.8047 53.5422 54.1669 53.0928 54.4305 52.6438V46.6759H49.7547C48.3281 46.6759 47.1098 46.815 46.0999 47.0929C45.09 47.3497 44.267 47.724 43.6304 48.216C42.9938 48.6864 42.5219 49.2641 42.2145 49.9487C41.9072 50.6116 41.7537 51.3389 41.7537 52.1304C41.7537 53.3283 42.1815 54.3229 43.0376 55.1145C43.9158 55.9057 45.2328 56.3016 46.9889 56.3016Z" fill="white"/>
<path d="M537.298 10.6526L485.028 69.2342" stroke="white" stroke-width="3"/>
<path d="M594.603 22.9931L485.028 69.2342" stroke="white" stroke-width="3"/>
<path d="M538.078 84.0573L484.886 69.3055" stroke="white" stroke-width="3"/>
<path d="M538.716 10.0851L521.624 54.5532" stroke="white" stroke-width="3"/>
<path d="M540.702 82.922L521.979 53.9858" stroke="white" stroke-width="3"/>
<path d="M538.575 8.17029L594.745 18.8085" stroke="white" stroke-width="3"/>
<path d="M538.433 7.53174L590.277 48.9502" stroke="white" stroke-width="3"/>
<path d="M598.575 27.1772L590.135 49.1631" stroke="white" stroke-width="3"/>
<path d="M539.355 7.03568L542.192 85.9011" stroke="white" stroke-width="3"/>
<path d="M596.66 25.0497L541.837 85.6882" stroke="white" stroke-width="3"/>
<path d="M586.589 51.7872L544.319 83.6312" stroke="white" stroke-width="3"/>
<path d="M602.05 31.0073C608.121 31.0073 613.043 26.0855 613.043 20.0143C613.043 13.9431 608.121 9.02139 602.05 9.02139C595.978 9.02139 591.057 13.9431 591.057 20.0143C591.057 26.0855 595.978 31.0073 602.05 31.0073Z" fill="#FFC107"/>
<path d="M542.085 92C546.609 92 550.276 88.3326 550.276 83.8085C550.276 79.2845 546.609 75.617 542.085 75.617C537.561 75.617 533.893 79.2845 533.893 83.8085C533.893 88.3326 537.561 92 542.085 92Z" fill="#2196F4"/>
<path d="M539.462 13.844C542.732 13.844 545.384 11.1926 545.384 7.922C545.384 4.65137 542.732 2 539.462 2C536.191 2 533.54 4.65137 533.54 7.922C533.54 11.1926 536.191 13.844 539.462 13.844Z" fill="#F34335"/>
<path d="M521.731 59.5887C525.002 59.5887 527.653 56.9374 527.653 53.6667C527.653 50.3961 525.002 47.7448 521.731 47.7448C518.461 47.7448 515.809 50.3961 515.809 53.6667C515.809 56.9374 518.461 59.5887 521.731 59.5887Z" fill="#9C27AF"/>
<path d="M484.922 75.4045C488.193 75.4045 490.844 72.7532 490.844 69.4825C490.844 66.2119 488.193 63.5605 484.922 63.5605C481.651 63.5605 479 66.2119 479 69.4825C479 72.7532 481.651 75.4045 484.922 75.4045Z" fill="#F34335"/>
<path d="M590.241 55.83C593.512 55.83 596.163 53.1786 596.163 49.908C596.163 46.6374 593.512 43.986 590.241 43.986C586.971 43.986 584.319 46.6374 584.319 49.908C584.319 53.1786 586.971 55.83 590.241 55.83Z" fill="#8BC349"/>
<path fill-rule="evenodd" clip-rule="evenodd" d="M688.411 10.5349C685.087 10.8363 682.75 11.8115 681.028 13.616C680.073 14.6168 679.514 15.6192 679.126 17.0267C679.033 17.3629 678.989 17.9429 678.988 18.8293C678.986 20.1235 679.045 20.5063 679.395 21.5124C679.877 22.8936 681.349 24.3484 683.15 25.2222C683.463 25.3744 683.786 25.4989 683.866 25.4989C683.946 25.4989 684.05 25.5325 684.097 25.5734C684.144 25.6143 684.365 25.7001 684.588 25.7639C684.81 25.8277 685.073 25.9126 685.172 25.9524C685.271 25.9921 685.454 26.0511 685.577 26.0833C685.701 26.1156 685.924 26.1771 686.072 26.2198C686.904 26.4597 687.81 26.6937 688.861 26.94C690.237 27.2625 691.565 27.6321 691.807 27.7599C691.892 27.8052 692.018 27.8423 692.086 27.8423C692.28 27.8423 693.267 28.3775 693.636 28.6825C693.82 28.8342 694.086 29.141 694.227 29.3643C694.44 29.7005 694.484 29.8683 694.484 30.3396C694.484 31.3111 694.015 32.0364 693.044 32.5657C691.436 33.4427 687.881 33.4666 685.127 32.6192C685.004 32.5812 684.72 32.4977 684.498 32.4337C684.275 32.3698 684.054 32.2839 684.007 32.243C683.96 32.2021 683.87 32.1686 683.807 32.1686C683.535 32.1686 681.519 31.1666 680.885 30.7159C680.754 30.6226 680.608 30.5462 680.562 30.5462C680.45 30.5462 680.166 31.1368 679.042 33.7008C678.922 33.9734 678.745 34.3524 678.647 34.5431C678.55 34.7336 678.47 34.9567 678.471 35.0388C678.475 35.281 679.751 36.0437 681.259 36.7046C681.608 36.8578 682.982 37.3137 683.575 37.4735C685.609 38.021 686.725 38.1566 689.221 38.1596C692.37 38.1634 694.067 37.8301 696.178 36.793C698.418 35.6927 699.974 33.8005 700.499 31.5377C700.864 29.9692 700.614 27.8702 699.906 26.5513C699.314 25.4481 697.517 23.9598 696.104 23.4034C695.98 23.3547 695.809 23.2789 695.723 23.2351C695.637 23.1913 695.487 23.1556 695.391 23.1556C695.294 23.1556 695.19 23.115 695.159 23.0654C695.129 23.0159 695.012 22.9753 694.899 22.9753C694.786 22.9753 694.666 22.947 694.632 22.9125C694.572 22.853 694.285 22.7676 692.685 22.3331C691.869 22.1114 691.206 21.9466 690.211 21.7179C689.646 21.5881 689.231 21.4832 688.771 21.3539C688.573 21.2982 688.29 21.2192 688.141 21.1783C687.623 21.0356 686.971 20.7939 686.886 20.7132C686.839 20.6685 686.746 20.6319 686.679 20.6319C686.4 20.6319 685.677 20.0444 685.408 19.5993C685.159 19.1879 685.127 19.059 685.127 18.4472C685.127 18.0683 685.168 17.7333 685.217 17.7027C685.267 17.672 685.307 17.5851 685.307 17.5093C685.307 17.27 685.83 16.6323 686.275 16.3291C686.51 16.1685 686.946 15.951 687.242 15.8456C687.857 15.6273 689.302 15.4111 690.166 15.408C691.067 15.4046 692.834 15.6658 693.81 15.9466C694.008 16.0036 694.281 16.0717 694.418 16.0982C694.555 16.1246 694.689 16.1821 694.716 16.2259C694.743 16.2698 694.824 16.3057 694.896 16.3057C695.043 16.3057 695.498 16.5027 696.708 17.0894C697.475 17.4612 697.723 17.5104 697.723 17.2908C697.723 17.2437 697.808 17.0128 697.912 16.7779C698.016 16.543 698.132 16.2696 698.17 16.1705C698.208 16.0713 698.29 15.8685 698.353 15.7198C698.416 15.5711 698.508 15.348 698.557 15.2241C698.607 15.1002 698.688 14.8974 698.737 14.7735C698.787 14.6495 698.858 14.467 698.896 14.3679C698.934 14.2687 699.026 14.0457 699.1 13.8722C699.439 13.0837 699.5 12.8998 699.446 12.8253C699.293 12.6149 697.245 11.6189 696.965 11.6189C696.893 11.6189 696.809 11.5783 696.779 11.5288C696.748 11.4792 696.644 11.4386 696.547 11.4386C696.45 11.4386 696.301 11.4004 696.215 11.3537C695.961 11.2159 694.183 10.8129 693.045 10.6353C692.23 10.5082 689.386 10.4466 688.411 10.5349ZM716.527 10.5003C713.014 10.7299 709.65 12.2025 707.296 14.5415C705.859 15.9688 704.849 17.4268 704.28 18.8969C704.237 19.0085 704.163 19.1909 704.116 19.3025C703.894 19.8289 703.666 20.6802 703.387 22.0289C703.219 22.8394 703.244 25.8078 703.427 26.7608C703.666 28.0108 703.716 28.2138 703.973 28.969C704.648 30.9571 705.547 32.3685 707.16 33.9731C708.604 35.4088 710.174 36.453 711.916 37.1365C712.028 37.1802 712.21 37.2518 712.321 37.2957C712.432 37.3396 712.706 37.4255 712.928 37.4864C713.151 37.5474 713.435 37.6288 713.558 37.6673C713.682 37.7058 714.006 37.7811 714.278 37.8344C714.55 37.8878 714.996 37.9811 715.268 38.0416C715.962 38.1961 719.516 38.1965 720.441 38.0421C722.881 37.6346 724.683 36.935 726.661 35.6271C727.719 34.9275 729.538 33.1106 730.259 32.0334C730.899 31.0775 731.578 29.7139 731.829 28.8788C731.888 28.6805 731.969 28.4372 732.008 28.338C732.047 28.2389 732.097 28.0564 732.119 27.9325C732.142 27.8085 732.232 27.3827 732.321 26.9861C732.526 26.0699 732.563 22.8935 732.379 21.9839C731.882 19.5294 731.116 17.7446 729.836 16.0596C728.378 14.1407 726.113 12.4327 723.86 11.5536C722.696 11.0996 722.127 10.9445 720.486 10.6347C719.958 10.535 717.351 10.4465 716.527 10.5003ZM618.339 10.958C618.306 10.991 618.279 17.0348 618.279 24.3886V37.7592L621.181 37.7354L624.082 37.7116L624.105 29.9829C624.118 25.7322 624.158 22.2546 624.195 22.255C624.232 22.2554 624.347 22.4075 624.45 22.593C624.553 22.7785 624.852 23.275 625.114 23.6963C625.376 24.1177 625.661 24.5841 625.748 24.7328C625.834 24.8816 626.239 25.5508 626.647 26.22C627.055 26.8892 627.621 27.822 627.906 28.293C628.191 28.7639 628.757 29.6968 629.165 30.366C630.113 31.9223 631.065 33.4889 631.534 34.2663L631.903 34.8767L633.337 34.8521L634.77 34.8274L635.664 33.3403C636.155 32.5223 636.678 31.6317 636.827 31.361C636.976 31.0903 637.175 30.7596 637.27 30.6261C637.365 30.4925 637.443 30.3562 637.443 30.3233C637.443 30.2903 637.564 30.0864 637.713 29.8703C637.861 29.6541 637.983 29.4503 637.983 29.4173C637.983 29.3843 638.059 29.2496 638.152 29.118C638.245 28.9864 638.401 28.7369 638.498 28.5634C638.596 28.3899 639.295 27.2137 640.052 25.9496C640.809 24.6855 641.504 23.5194 641.595 23.3584C641.687 23.1972 641.84 22.9269 641.936 22.7575C642.245 22.2106 642.525 21.8059 642.594 21.8047C642.631 21.8041 642.661 25.393 642.661 29.7801V37.7566H645.541H648.42L648.397 24.3498L648.374 10.9429L645.9 10.9209C644.539 10.9089 643.38 10.9291 643.325 10.966C643.224 11.0327 642.121 12.8382 642.121 12.9365C642.121 12.9649 642.045 13.0958 641.952 13.2274C641.859 13.359 641.703 13.6085 641.606 13.782C641.508 13.9555 640.937 14.9193 640.335 15.9237C639.734 16.9282 639.242 17.7725 639.242 17.8002C639.242 17.8279 639.121 18.0273 638.972 18.2435C638.824 18.4596 638.702 18.6624 638.702 18.6941C638.702 18.7258 638.581 18.9286 638.433 19.1448C638.284 19.3609 638.163 19.555 638.163 19.5762C638.163 19.5974 637.752 20.2999 637.249 21.1373C636.746 21.9747 636.261 22.7917 636.169 22.9528C636.078 23.1139 635.918 23.3978 635.813 23.5837C635.708 23.7696 635.546 24.0293 635.453 24.1609C635.36 24.2925 635.284 24.4182 635.284 24.4403C635.284 24.5036 633.578 27.3341 633.481 27.4306C633.39 27.5221 633.227 27.3492 633.02 26.941C632.957 26.8171 632.838 26.6143 632.756 26.4904C632.673 26.3664 632.524 26.1231 632.425 25.9496C632.242 25.6317 629.289 20.7154 625.926 15.134C624.926 13.4733 624.027 11.9727 623.928 11.7992C623.83 11.6257 623.65 11.3518 623.529 11.1908L623.308 10.8979H620.854C619.504 10.8979 618.372 10.9249 618.339 10.958ZM654.852 11.1003C654.825 11.2121 654.814 17.2453 654.828 24.5075L654.852 37.7116H665.199H675.546V35.2781V32.8446L668.303 32.7995L661.06 32.7544L661.037 29.6681L661.013 26.5818L667.2 26.5586L673.386 26.5354V24.147V21.7585L667.201 21.7354L661.015 21.7122V18.8292V15.9462L668.01 15.9232L675.006 15.9001V13.4215V10.9429L664.953 10.92L654.901 10.897L654.852 11.1003ZM737.262 11.0105C737.239 11.0725 737.23 17.1056 737.242 24.4174L737.266 37.7116H740.28H743.294L743.317 29.7125C743.335 23.1737 743.361 21.7135 743.458 21.7135C743.523 21.7135 743.795 21.9873 744.063 22.3219C744.638 23.0414 744.624 23.0247 745.291 23.8346C745.578 24.1832 745.961 24.6496 746.142 24.8711C746.323 25.0925 746.89 25.7822 747.402 26.4038C747.913 27.0254 748.474 27.7092 748.647 27.9234C749.085 28.4652 749.979 29.5544 750.209 29.8268C750.315 29.9517 750.744 30.479 751.163 30.9985C751.582 31.5181 751.947 31.9635 751.974 31.9883C752.019 32.0292 752.676 32.8267 752.938 33.1587C753.096 33.3584 754.124 34.6094 754.348 34.8741C754.454 34.999 754.883 35.5263 755.303 36.0458C755.723 36.5654 756.142 37.0717 756.235 37.1708C756.327 37.2699 756.464 37.4423 756.539 37.5539C756.675 37.7562 756.681 37.7566 759.229 37.7566H761.783L761.76 24.3498L761.738 10.9429H758.724H755.71L755.687 19.0321C755.674 23.4812 755.633 27.1196 755.597 27.1174C755.56 27.1152 755.233 26.7342 754.87 26.2705C754.508 25.8068 754.142 25.3523 754.058 25.2604C753.974 25.1685 753.564 24.6675 753.147 24.147C752.73 23.6265 752.365 23.1803 752.336 23.1556C752.306 23.1308 751.942 22.6846 751.526 22.1641C751.11 21.6436 750.746 21.1975 750.716 21.1727C750.687 21.1479 750.322 20.7018 749.906 20.1813C749.491 19.6608 749.126 19.2146 749.096 19.1898C749.066 19.165 748.781 18.8203 748.462 18.4237C747.84 17.6506 747.117 16.7639 746.038 15.452C745.667 15.0009 745.221 14.4564 745.048 14.242C744.875 14.0277 744.51 13.582 744.238 13.2515C743.966 12.921 743.602 12.4746 743.429 12.2595C743.255 12.0443 742.933 11.65 742.712 11.3831L742.31 10.8979H739.808C737.888 10.8979 737.295 10.9241 737.262 11.0105ZM719.422 15.8622C720.478 16.0766 720.707 16.1517 721.611 16.5803C723.807 17.6216 725.329 19.4867 725.983 21.9388C726.173 22.6531 726.199 22.9438 726.199 24.3723C726.199 25.4695 726.159 26.1406 726.076 26.4453C725.496 28.5575 724.594 30.0304 723.185 31.1655C722.623 31.6181 721.044 32.4616 720.576 32.5588C720.452 32.5845 720.068 32.6694 719.721 32.7476C718.898 32.9332 716.975 32.9361 716.099 32.7529C714.354 32.3883 713.124 31.743 711.984 30.5948C711.196 29.8014 711.128 29.7132 710.6 28.7903C710.18 28.0557 709.928 27.3661 709.677 26.2651C709.518 25.5645 709.517 23.0099 709.676 22.3895C710.01 21.0825 710.007 21.0918 710.328 20.4066C711.335 18.256 713.386 16.5666 715.637 16.034C715.904 15.9707 716.244 15.888 716.392 15.8501C716.806 15.7444 718.883 15.7527 719.422 15.8622ZM769.115 30.7207C767.926 30.9251 766.78 31.9797 766.379 33.241C766.147 33.9675 766.297 35.3664 766.689 36.1476C766.868 36.505 767.85 37.4881 768.171 37.6319C768.744 37.8886 768.879 37.9309 769.385 38.0117C770.561 38.1995 771.87 37.7589 772.638 36.9169C773.367 36.1177 773.659 35.3784 773.658 34.3408C773.656 33.187 773.329 32.3889 772.558 31.6588C771.652 30.8005 770.492 30.4843 769.115 30.7207ZM753.325 50.6967C751.75 50.8235 749.954 51.22 748.692 51.7198C747.792 52.0762 745.6 53.2768 745.408 53.5189C745.383 53.5501 745.21 53.69 745.022 53.8299C744.586 54.1555 743.402 55.3354 742.926 55.9184C742.217 56.7865 741.333 58.2762 740.987 59.1851C740.944 59.2966 740.873 59.4792 740.828 59.5907C740.549 60.2905 740.341 61.1218 740.103 62.4899C740.052 62.7832 740.01 63.6991 740.01 64.5253C740.01 65.9237 740.051 66.376 740.286 67.5447C740.483 68.5213 740.811 69.534 741.222 70.4359C741.534 71.1195 742.188 72.2787 742.372 72.4733C742.433 72.5386 742.602 72.7542 742.746 72.9525C743.235 73.6261 744.91 75.2036 745.723 75.7569C747.635 77.0585 749.195 77.6839 751.796 78.1923C752.788 78.3863 756.301 78.4159 757.239 78.2382C758.514 77.9966 759.309 77.8035 759.555 77.6756C759.64 77.6308 759.773 77.5942 759.848 77.5942C759.924 77.5942 760.056 77.5587 760.142 77.5152C760.228 77.4718 760.6 77.3091 760.969 77.1537C761.901 76.7614 763.153 76.054 763.878 75.5092C764.49 75.0501 765.746 73.8578 766.235 73.2718C767.224 72.0883 768.128 70.4525 768.604 68.9867C769.18 67.2129 769.421 65.1645 769.255 63.4403C768.994 60.7218 768.371 58.9122 766.975 56.8212C766.219 55.6889 764.436 53.927 763.267 53.1569C762.494 52.6477 761.168 51.9448 760.568 51.7264C760.469 51.6903 760.287 51.6195 760.163 51.5689C760.039 51.5183 759.756 51.427 759.533 51.3661C759.311 51.3052 759.027 51.2237 758.904 51.1852C758.693 51.1198 758.464 51.0726 757.194 50.8327C756.674 50.7344 754.017 50.641 753.325 50.6967ZM618.339 51.156C618.306 51.189 618.279 57.2328 618.279 64.5866V77.9571L621.316 77.9333L624.352 77.9096L624.375 69.9106C624.393 63.6017 624.422 61.9117 624.51 61.9123C624.572 61.9128 624.723 62.0422 624.847 62.1999C624.971 62.3577 625.477 62.9774 625.972 63.5771C626.466 64.1769 627.013 64.8428 627.186 65.057C627.624 65.5988 628.519 66.688 628.749 66.9604C628.854 67.0854 629.283 67.6126 629.702 68.1321C630.121 68.6517 630.486 69.0972 630.513 69.1219C630.558 69.1629 631.215 69.9603 631.478 70.2923C631.636 70.492 632.664 71.743 632.887 72.0077C632.993 72.1326 633.422 72.6599 633.841 73.1794C634.26 73.699 634.625 74.1444 634.654 74.1692C634.682 74.194 634.966 74.5388 635.285 74.9353C635.853 75.6417 636.647 76.6058 637.029 77.0534C637.135 77.1773 637.337 77.4309 637.478 77.6167L637.734 77.9547H640.288H642.842L642.819 64.5478L642.796 51.141H639.782H636.768L636.745 59.2302C636.732 63.6792 636.692 67.3179 636.655 67.3161C636.618 67.3143 636.487 67.1794 636.363 67.0164C636.128 66.7067 635.841 66.3511 635.014 65.3467C634.742 65.0162 634.377 64.5701 634.204 64.3553C634.031 64.1405 633.666 63.6944 633.394 63.3639C633.122 63.0334 632.758 62.5872 632.584 62.3725C632.411 62.1577 632.047 61.7115 631.775 61.381C631.503 61.0505 631.138 60.6044 630.965 60.3896C630.792 60.1748 630.427 59.7287 630.155 59.3982C629.883 59.0677 629.519 58.6215 629.346 58.4067C628.936 57.8985 628.028 56.7916 627.783 56.5021C627.677 56.3772 627.248 55.8499 626.83 55.3304C626.411 54.8108 626.044 54.3654 626.016 54.3406C625.987 54.3158 625.622 53.8697 625.205 53.3492C624.789 52.8287 624.398 52.3512 624.337 52.288C624.276 52.2249 624.036 51.9308 623.803 51.6345L623.381 51.0959H620.89C619.52 51.0959 618.372 51.1229 618.339 51.156ZM649.181 51.2086C649.157 51.2706 649.148 57.3036 649.161 64.6154L649.184 77.9096H659.531H669.877V75.4761V73.0426L662.635 72.9962C658.651 72.9707 655.382 72.9402 655.37 72.9286C655.357 72.917 655.347 71.5287 655.347 69.8436V66.7798L661.533 66.7567L667.718 66.7335V64.345V61.9566L661.533 61.9334L655.347 61.9103V59.0267V56.1432H662.302C667.591 56.1432 669.282 56.1173 669.365 56.035C669.443 55.9566 669.473 55.3017 669.473 53.654C669.473 52.4039 669.448 51.3169 669.418 51.2385C669.369 51.1096 668.393 51.0959 659.293 51.0959C651.32 51.0959 649.215 51.1193 649.181 51.2086ZM671.853 51.2097C671.828 51.2726 671.819 52.3982 671.833 53.7111L671.857 56.0981L676.13 56.1432L680.404 56.1883L680.427 67.0715L680.45 77.9547H683.508H686.566L686.589 67.0715L686.612 56.1883L690.886 56.1432L695.159 56.0981V53.6196V51.141L683.528 51.1181C674.194 51.0998 671.888 51.1178 671.853 51.2097ZM695.793 51.1793C695.765 51.2252 695.778 51.3569 695.823 51.4722C695.868 51.5875 696.399 53.2027 697.003 55.0616C697.607 56.9206 698.138 58.5119 698.182 58.598C698.227 58.6841 698.263 58.8165 698.263 58.8922C698.263 58.9679 698.3 59.1003 698.344 59.1863C698.388 59.2724 698.8 60.4987 699.258 61.9115C701.175 67.8158 702.246 71.0692 702.321 71.2162C702.366 71.3023 702.402 71.4347 702.402 71.5104C702.402 71.5861 702.438 71.7185 702.482 71.8046C702.558 71.952 704.034 76.4485 704.293 77.3238C704.359 77.5469 704.452 77.7806 704.499 77.8431C704.566 77.9319 705.307 77.9517 707.864 77.9332L711.144 77.9096L713.116 72.0061C716.735 61.1798 717.076 60.1673 717.153 60.0294C717.212 59.9231 717.262 59.9695 717.373 60.237C717.452 60.4265 717.517 60.638 717.517 60.707C717.517 60.776 717.553 60.9029 717.597 60.989C717.641 61.075 717.879 61.7741 718.125 62.5424C719.179 65.8353 719.88 68.0076 719.945 68.1756C719.983 68.2747 720.216 68.9845 720.462 69.7529C721.842 74.0495 722.222 75.2234 722.284 75.386C722.323 75.4851 722.528 76.1036 722.74 76.7605L723.126 77.9547H726.407C729.426 77.9547 729.698 77.9421 729.808 77.797C729.873 77.7103 729.929 77.5677 729.93 77.4803C729.932 77.3928 729.969 77.2509 730.014 77.1648C730.058 77.0787 730.307 76.3391 730.568 75.5212C731.547 72.4487 732.654 69.0714 732.731 68.9204C732.776 68.8343 732.812 68.6846 732.812 68.5877C732.812 68.4908 732.852 68.3865 732.902 68.3558C732.951 68.3252 732.992 68.2035 732.992 68.0854C732.992 67.9674 733.032 67.8457 733.082 67.8151C733.131 67.7844 733.172 67.68 733.172 67.5831C733.172 67.4863 733.208 67.3366 733.252 67.2505C733.296 67.1644 733.493 66.587 733.689 65.9674C734.517 63.3547 735.894 59.1508 735.97 59.0061C736.014 58.92 736.051 58.7703 736.051 58.6734C736.051 58.5765 736.091 58.4722 736.141 58.4415C736.19 58.4109 736.231 58.2892 736.231 58.1711C736.231 58.0531 736.271 57.9314 736.321 57.9007C736.37 57.8701 736.411 57.7657 736.411 57.6688C736.411 57.5719 736.447 57.4222 736.492 57.3362C736.536 57.2501 736.738 56.6524 736.941 56.008C737.144 55.3636 737.575 54.0291 737.899 53.0425C738.23 52.0376 738.455 51.2146 738.411 51.1711C738.369 51.1283 737.042 51.104 735.462 51.1172L732.591 51.141L732.511 51.4114C732.467 51.5601 732.395 51.7521 732.352 51.8382C732.308 51.9243 732.272 52.074 732.272 52.1709C732.272 52.2678 732.232 52.3722 732.182 52.4028C732.133 52.4334 732.092 52.5551 732.092 52.6732C732.092 52.7913 732.052 52.9129 732.002 52.9436C731.953 52.9742 731.912 53.0959 731.912 53.214C731.912 53.332 731.872 53.4537 731.822 53.4844C731.773 53.515 731.732 53.6367 731.732 53.7547C731.732 53.8728 731.692 53.9945 731.642 54.0251C731.593 54.0558 731.552 54.1602 731.552 54.257C731.552 54.3539 731.516 54.5036 731.472 54.5897C731.427 54.6758 731.137 55.5371 730.827 56.5037C729.694 60.0352 728.113 64.8448 728.034 64.9972C727.99 65.0833 727.954 65.233 727.954 65.3299C727.954 65.4268 727.913 65.5312 727.864 65.5618C727.814 65.5924 727.774 65.7141 727.774 65.8322C727.774 65.9503 727.733 66.0719 727.684 66.1026C727.634 66.1332 727.594 66.2549 727.594 66.373C727.594 66.491 727.553 66.6127 727.504 66.6434C727.454 66.674 727.414 66.7784 727.414 66.8753C727.414 66.9722 727.377 67.1219 727.333 67.2079C727.288 67.294 727.069 67.9322 726.847 68.6262C726.624 69.3202 726.407 69.888 726.366 69.888C726.324 69.888 726.093 69.2797 725.851 68.5361C725.61 67.7925 725.382 67.103 725.344 67.0039C725.307 66.9047 725.103 66.2761 724.891 65.6069C724.215 63.4692 723.615 61.6016 723.545 61.4158C723.507 61.3167 723.303 60.688 723.092 60.0188C722.415 57.8811 721.815 56.0135 721.745 55.8277C721.708 55.7286 721.504 55.0999 721.293 54.4307C720.729 52.6417 720.398 51.6235 720.29 51.3438L720.194 51.0959H717.378H714.561L714.42 51.3802C714.342 51.5365 714.278 51.7369 714.278 51.8255C714.278 51.9141 714.238 52.0116 714.188 52.0423C714.139 52.0729 714.098 52.1946 714.098 52.3127C714.098 52.4307 714.058 52.5524 714.008 52.5831C713.959 52.6137 713.918 52.7354 713.918 52.8534C713.918 52.9715 713.878 53.0932 713.828 53.1238C713.779 53.1545 713.738 53.2589 713.738 53.3557C713.738 53.4526 713.698 53.6023 713.649 53.6884C713.6 53.7745 712.465 57.1504 711.127 61.1905C709.789 65.2306 708.659 68.6172 708.616 68.7164C708.545 68.8798 708.46 69.1217 708.3 69.6112C708.252 69.7596 708.227 69.7662 708.13 69.6562C708.067 69.5854 707.972 69.3856 707.918 69.2121C707.572 68.0936 706.87 65.8927 706.812 65.7421C706.773 65.6429 706.609 65.1359 706.447 64.6154C706.285 64.0949 705.963 63.081 705.731 62.3622C705.499 61.6434 705.134 60.5077 704.921 59.8385C704.708 59.1693 704.337 58.0134 704.097 57.2698C703.857 56.5262 703.544 55.5528 703.402 55.1067C702.485 52.2233 702.181 51.3081 702.105 51.2086C702.001 51.071 695.877 51.0426 695.793 51.1793ZM773.973 51.2987C773.946 51.4102 773.936 57.4433 773.949 64.7056L773.974 77.9096L777.054 77.9333L780.135 77.957L780.158 74.238L780.182 70.519L783.03 70.4952L785.877 70.4714L786.622 71.5767C787.032 72.1847 787.392 72.7024 787.422 72.7271C787.452 72.7519 787.816 73.2792 788.231 73.8988C788.647 74.5185 789.011 75.0457 789.041 75.0705C789.071 75.0953 789.436 75.6226 789.851 76.2422C790.266 76.8619 790.63 77.3891 790.659 77.4139C790.688 77.4387 790.783 77.5705 790.87 77.7068L791.027 77.9547H794.309C797.107 77.9547 797.591 77.9355 797.591 77.8248C797.591 77.7533 797.549 77.6692 797.498 77.6376C797.447 77.6061 797.124 77.1677 796.779 76.6634C796.434 76.1591 795.868 75.3409 795.522 74.8452C795.175 74.3495 794.602 73.518 794.247 72.9975C793.893 72.477 793.576 72.0309 793.543 72.0061C793.509 71.9813 793.226 71.5757 792.912 71.1048C792.599 70.6339 792.207 70.0704 792.042 69.8525C791.878 69.6348 791.743 69.4224 791.743 69.3807C791.743 69.339 791.996 69.177 792.305 69.0208C793.471 68.4322 794.718 67.3972 795.495 66.373C796.748 64.7232 797.407 62.1328 797.148 59.8728C796.973 58.3475 796.741 57.5088 796.194 56.4136C795.397 54.8176 793.706 53.2168 791.968 52.4127C791.264 52.087 791.061 52.0074 790.483 51.8294C788.25 51.1415 787.616 51.0959 780.286 51.0959H774.022L773.973 51.2987ZM802.131 51.2086C802.108 51.2706 802.099 57.3036 802.111 64.6154L802.135 77.9096H805.194H808.253L808.298 74.4792L808.343 71.0487L808.882 70.5123C809.179 70.2173 809.944 69.4187 810.582 68.7377C811.221 68.0568 811.792 67.4996 811.851 67.4996C811.911 67.4996 812.15 67.742 812.382 68.0382C812.615 68.3345 812.853 68.6286 812.913 68.6917C813.006 68.791 814.298 70.379 814.685 70.8711C814.76 70.9656 814.945 71.1887 815.096 71.3668C815.248 71.5449 815.712 72.1165 816.127 72.637C816.542 73.1575 816.904 73.6037 816.931 73.6284C816.974 73.6681 818.284 75.2815 818.644 75.7381C818.718 75.8327 818.903 76.0557 819.054 76.2338C819.206 76.4119 819.583 76.872 819.892 77.2562L820.455 77.9547H824.003C825.955 77.9547 827.551 77.9203 827.551 77.8781C827.551 77.836 827.121 77.2581 826.596 76.5937C826.07 75.9295 825.534 75.2478 825.404 75.079C825.273 74.9101 825.066 74.647 824.942 74.4943C824.619 74.0957 824.612 74.0862 823.36 72.5018C822.733 71.7087 822.114 70.9216 821.984 70.7528C821.854 70.5838 821.647 70.3208 821.523 70.1681C821.4 70.0154 821.25 69.8291 821.191 69.7541C821.132 69.679 820.745 69.1918 820.331 68.6713C819.917 68.1508 819.361 67.441 819.095 67.094C818.829 66.747 818.589 66.4428 818.56 66.418C818.532 66.3932 818.398 66.2243 818.263 66.0428C818.128 65.8612 817.966 65.6574 817.903 65.5899C817.841 65.5224 817.665 65.306 817.513 65.1089C817.361 64.9119 816.941 64.3752 816.581 63.9165L815.925 63.0824L816.263 62.6997C816.45 62.4893 816.93 61.9701 817.331 61.5459C817.731 61.1217 818.26 60.5539 818.505 60.284C818.75 60.0143 819.438 59.2677 820.034 58.6251C820.631 57.9826 821.382 57.1731 821.703 56.8263C822.025 56.4796 822.43 56.0517 822.603 55.8756C822.776 55.6996 823.076 55.3734 823.27 55.1508C823.464 54.9282 824.153 54.1805 824.8 53.4891C826.836 51.3147 826.922 51.2168 826.861 51.1557C826.828 51.1228 825.317 51.0959 823.502 51.0959H820.202L819.806 51.4812C819.587 51.6931 819.168 52.1292 818.873 52.4501C818.579 52.7711 817.647 53.7626 816.804 54.6533C815.96 55.5442 814.926 56.6369 814.506 57.0817C814.085 57.5264 813.559 58.0768 813.336 58.3048C813.113 58.5327 812.69 58.9812 812.395 59.3014C812.1 59.6216 811.128 60.6465 810.235 61.579C809.343 62.5115 808.599 63.3126 808.582 63.3591C808.566 63.4057 808.495 63.4437 808.425 63.4437C808.316 63.4437 808.298 62.5558 808.298 57.4124C808.298 54.0952 808.273 51.3169 808.243 51.2385C808.195 51.1124 807.84 51.0959 805.181 51.0959C802.858 51.0959 802.164 51.1215 802.131 51.2086ZM756.181 56.0622C757.026 56.258 757.331 56.3423 757.485 56.4223C757.571 56.4671 757.683 56.5037 757.734 56.5037C757.868 56.5037 758.605 56.8608 759.153 57.191C760.428 57.9594 761.372 59.0066 762.099 60.4592C762.548 61.357 762.69 61.8182 762.908 63.0832C763.208 64.8363 762.946 66.8424 762.211 68.4009C761.066 70.8287 759.073 72.4033 756.453 72.9509C755.573 73.1349 753.653 73.1314 752.831 72.9445C752.484 72.8658 752.089 72.78 751.952 72.7538C751.816 72.7277 751.681 72.6705 751.654 72.6267C751.627 72.5828 751.547 72.5469 751.475 72.5469C751.255 72.5469 750.526 72.1761 749.816 71.7029C748.444 70.788 747.47 69.5236 746.752 67.7249C746.712 67.6258 746.632 67.3216 746.573 67.0489C746.513 66.7763 746.43 66.4356 746.386 66.2919C746.258 65.8661 746.292 63.2911 746.436 62.6055C746.795 60.8842 747.412 59.6628 748.511 58.4993C749.562 57.3853 750.995 56.5639 752.606 56.1512C753.389 55.9505 755.474 55.8986 756.181 56.0622ZM786.615 56.2759C787.964 56.4987 788.37 56.6487 789.228 57.241C790.621 58.2032 791.226 60.1178 790.775 62.1415C790.474 63.4963 789.294 64.7194 787.853 65.1696C786.895 65.4694 786.265 65.5166 783.218 65.5166L780.137 65.5167V60.8901C780.137 58.3453 780.164 56.2363 780.197 56.2033C780.318 56.0819 785.817 56.1441 786.615 56.2759Z" fill="white"/>
<g clip-path="url(#clip0_3_127)">
<path d="M1055.25 46.8073C1060.02 46.8073 1064.66 46.8073 1069.43 46.8073C1069.43 47.4187 1069.43 48.0299 1069.43 48.6412C1069.43 55.8549 1069.43 63.1908 1069.43 70.4045C1069.43 74.0724 1072 76.64 1075.42 76.5177C1078.6 76.3955 1080.8 73.8279 1080.8 70.5267C1080.8 63.1908 1080.8 55.8549 1080.8 48.5189C1080.8 48.0299 1080.8 47.4187 1080.8 46.8073C1085.57 46.8073 1090.34 46.8073 1095.11 46.8073C1095.11 47.4187 1095.11 47.9077 1095.11 48.5189C1095.11 56.0994 1095.11 63.6798 1095.11 71.2603C1095.11 74.6836 1097.55 77.2513 1100.85 77.2513C1104.16 77.2513 1106.48 74.6836 1106.48 71.138C1106.48 63.4353 1106.48 55.7326 1106.48 48.1522C1106.48 47.7854 1106.48 47.2963 1106.48 46.8073C1111.25 46.8073 1115.89 46.8073 1120.78 46.8073C1120.78 59.6452 1120.78 72.4829 1120.78 85.5654C1115.53 85.4431 1111.61 82.9978 1108.68 78.8407C1101.47 89.4778 1087.89 87.8883 1082.64 79.2074C1081.9 80.0634 1081.17 80.9193 1080.44 81.6528C1076.28 85.5654 1071.51 87.1548 1065.89 85.8099C1060.63 84.4649 1057.21 81.0416 1055.62 75.7841C1055.25 74.6838 1055.13 73.4611 1055.13 72.3607C1055.13 64.169 1055.13 55.8549 1055.13 47.6632C1055.13 47.4187 1055.13 47.174 1055.25 46.8073Z" fill="white"/>
<path d="M1034.71 46.8073C1039.6 46.8073 1044.25 46.8073 1049.14 46.8073C1048.77 51.8201 1050.12 56.9553 1047.55 61.6014C1046.33 63.8021 1044.49 65.636 1042.66 67.9591C1046.2 73.4609 1049.99 79.3297 1053.91 85.5652C1052.44 85.5652 1051.22 85.5652 1050.12 85.5652C1046.33 85.5652 1042.54 85.5652 1038.62 85.5652C1037.28 85.5652 1036.42 85.1984 1035.69 83.9758C1032.02 78.107 1028.23 72.3607 1024.56 66.4919C1024.32 66.1252 1023.95 65.636 1023.46 64.9025C1023.46 71.9938 1023.46 78.5962 1023.46 85.3207C1018.57 85.3207 1013.93 85.3207 1009.16 85.3207C1009.16 66.3697 1009.16 47.4185 1009.16 28.3452C1013.8 28.3452 1018.57 28.3452 1023.46 28.3452C1023.46 28.9565 1023.46 29.5679 1023.46 30.1792C1023.46 37.8819 1023.46 45.5846 1023.46 53.4095C1023.46 56.2216 1025.42 58.4225 1027.99 58.9115C1030.8 59.4005 1033.37 57.9333 1034.34 55.3659C1034.59 54.6322 1034.71 53.8987 1034.71 53.165C1034.83 51.2088 1034.71 49.1302 1034.71 46.8073Z" fill="white"/>
<path d="M1151.72 28.3452C1156.49 28.3452 1161.13 28.3452 1165.78 28.3452C1165.78 47.4185 1165.78 66.3697 1165.78 85.4429C1161.13 85.4429 1156.49 85.4429 1151.72 85.4429C1151.72 66.4919 1151.72 47.4185 1151.72 28.3452Z" fill="white"/>
<path d="M1127.87 46.8073C1132.52 46.8073 1137.17 46.8073 1141.93 46.8073C1141.93 47.5409 1141.93 48.0299 1141.93 48.6412C1141.93 55.4881 1141.93 62.2126 1141.93 69.0596C1141.93 73.8279 1143.03 75.2951 1147.68 76.64C1147.68 79.3299 1147.68 81.8973 1147.68 84.5872C1147.68 84.9539 1147.07 85.4431 1146.58 85.5654C1138.27 88.3773 1128.61 82.8755 1128 74.0724C1127.38 65.147 1127.87 56.0994 1127.87 46.8073Z" fill="white"/>
<path d="M1142.79 33.1137C1142.79 37.2707 1139.37 40.6941 1135.09 40.6941C1130.81 40.6941 1127.39 37.1484 1127.39 32.9914C1127.39 28.8344 1130.93 25.4109 1135.09 25.4109C1139.37 25.4109 1142.79 28.8344 1142.79 33.1137Z" fill="white"/>
</g>
<g clip-path="url(#clip1_3_127)">
<path d="M990.674 2C992.044 2.84841 992.418 4.06044 992.418 5.63606C992.418 16.3018 992.418 26.8464 992.418 37.5121C992.418 38.7241 992.044 39.6937 991.172 40.5421C980.336 50.9656 969.5 61.5101 958.788 72.0547C957.542 73.2667 956.297 73.7516 954.553 73.7516C944.464 73.6303 934.375 73.7516 924.285 73.7516C923.165 73.7516 922.417 73.9938 921.545 74.8423C916.563 79.6904 911.581 84.5384 906.598 89.3864C905.228 90.7197 903.734 90.9622 902.613 89.8713C901.367 88.7804 901.492 87.2049 902.862 85.8716C907.844 81.0236 912.702 76.2967 917.684 71.4487C918.556 70.6002 918.93 69.8729 918.93 68.6609C918.93 58.9649 918.93 49.2688 918.93 39.4514C918.93 37.5121 919.552 36.179 920.922 34.8457C925.905 30.1188 930.762 25.2708 935.994 20.1803C935.994 31.3308 935.994 42.1179 935.994 53.0259C936.118 53.1472 936.368 53.1472 936.492 53.2683C937.987 51.8139 939.481 50.3594 940.976 48.7839C941.225 48.4203 941.225 47.693 941.225 47.2083C941.225 37.0272 941.225 26.8464 941.225 16.6654C941.225 15.5746 941.474 14.8474 942.222 14.1202C946.332 10.1205 950.442 5.99966 954.553 2C966.635 2 978.592 2 990.674 2ZM983.948 40.6634C983.325 40.5421 983.201 40.421 983.076 40.421C974.606 40.421 966.137 40.421 957.791 40.421C957.293 40.421 956.546 40.7846 956.172 41.1481C947.079 49.9959 937.862 58.8436 928.769 67.6914C928.52 67.9338 928.271 68.2974 928.022 68.7822C936.866 68.7822 945.46 68.7822 954.055 68.7822C954.677 68.7822 955.3 68.2974 955.674 67.9338C960.407 63.4494 965.016 58.8436 969.624 54.3592C974.357 49.7534 978.966 45.269 983.948 40.6634ZM958.414 31.4521C958.539 31.5732 958.663 31.6944 958.788 31.6944C961.154 29.2704 963.521 26.8464 966.012 24.5435C966.884 23.6951 967.258 22.9679 967.008 21.7559C966.884 20.9075 967.008 19.8167 967.258 18.9683C968.254 16.0594 971.742 14.3626 974.856 15.3322C978.094 16.3018 979.962 19.3319 979.215 22.3619C978.468 25.6344 975.478 27.6948 972.115 27.2099C971.119 27.0888 970.496 27.2099 969.873 27.9373C967.756 30.1188 965.514 32.1793 963.272 34.3608C963.023 34.6032 962.774 34.9668 962.4 35.3306C970.87 35.3306 979.215 35.3306 987.436 35.3306C987.436 34.9668 987.56 34.7246 987.56 34.4821C987.56 25.7555 987.56 17.029 987.56 8.30249C987.56 7.09048 986.938 6.96927 986.066 6.96927C977.222 6.96927 968.503 6.96927 959.66 6.96927C959.286 6.96927 958.912 7.09048 958.414 7.09048C958.414 15.3322 958.414 23.3315 958.414 31.4521Z" fill="white"/>
</g>
<defs>
<clipPath id="clip0_3_127">
<rect width="157.5" height="61.875" fill="white" transform="translate(1008.63 24.5)"/>
</clipPath>
<clipPath id="clip1_3_127">
<rect width="91.875" height="90" fill="white" transform="translate(901.751 2)"/>
</clipPath>
</defs>
</svg>
