<svg width="1408" height="840" viewBox="0 0 1408 840" fill="none" xmlns="http://www.w3.org/2000/svg">
<rect width="1408" height="840" fill="#DEC7FF"/>
<g clip-path="url(#clip0_1_10)">
<path d="M351.56 564C430.294 564 494.12 499.529 494.12 420C494.12 340.471 430.294 276 351.56 276C272.826 276 209 340.471 209 420C209 499.529 272.826 564 351.56 564Z" fill="#1C68F3"/>
<path d="M980.42 383.771C1006.55 383.771 1036.23 393.913 1038.01 426.368H1001.48C1000.72 416.986 992.09 412.676 980.674 412.676C970.019 412.676 965.199 416.733 965.199 421.55C965.199 425.607 968.243 429.41 977.883 431.185L1000.97 434.988C1024.05 439.299 1039.28 450.455 1039.28 472.26C1039.28 500.658 1013.65 513.843 981.688 513.843C949.47 513.843 923.339 500.405 920.803 467.697L957.334 467.95C959.11 478.599 967.989 483.417 980.927 483.417C991.836 483.417 998.432 480.121 998.432 474.796C998.432 470.739 994.627 467.443 986.509 466.175L961.647 461.865C940.337 458.315 925.623 446.398 925.623 424.846C925.623 398.984 947.694 383.771 980.42 383.771ZM826.428 384.249C839.851 384.249 850.994 387.795 860.111 393.62V387.035H901.137V509.876H860.111V503.037C850.994 508.862 839.851 512.408 826.428 512.408C793.253 512.408 765.396 484.801 765.396 448.329C765.396 411.603 793.253 384.249 826.428 384.249ZM586.124 337.385L647.641 429.54L708.904 337.385H740.933V510.017H697.973V423.447L659.589 482.599V482.853H635.694V482.599L597.055 422.939L597.309 510.017H554.349V337.385H586.124ZM1102.97 330.212V433.283L1145.91 387.192H1194.94L1148.19 437.335L1199 510.017H1149.72L1120.25 467.472L1102.97 485.959V510.017H1061.82V330.212H1102.97ZM834.532 417.682C817.818 417.682 805.662 431.359 805.662 448.329C805.662 465.298 817.818 478.722 834.532 478.722C843.649 478.722 852.513 476.189 860.111 467.325V429.333C852.513 420.468 843.649 417.682 834.532 417.682Z" fill="#1C68F3"/>
<path fill-rule="evenodd" clip-rule="evenodd" d="M437.606 384.603V432.423H293.301L287.092 432.424C293.664 461.44 319.743 483.113 350.914 483.113C376.684 483.113 398.974 468.3 409.637 446.77L437.606 446.77V486.939C437.606 496.447 429.853 504.154 420.289 504.154H281.757C272.193 504.154 264.44 496.447 264.44 486.939V384.603H437.606ZM393.029 446.77C383.845 460.118 368.408 468.878 350.914 468.878C333.419 468.878 317.982 460.118 308.799 446.77H393.029ZM313.985 396.08C300.414 396.08 289.188 406.056 287.321 419.034L302.081 419.034C303.704 414.039 308.42 410.426 313.985 410.426C319.549 410.426 324.265 414.039 325.888 419.034L340.649 419.034C338.782 406.056 327.555 396.08 313.985 396.08ZM388.061 396.08C374.491 396.08 363.264 406.056 361.397 419.034L376.158 419.034C377.781 414.039 382.497 410.426 388.061 410.426C393.626 410.426 398.342 414.039 399.965 419.034L414.726 419.034C412.858 406.056 401.632 396.08 388.061 396.08ZM420.289 332C429.853 332 437.606 339.708 437.606 349.215V370.257H264.44V349.215C264.44 339.708 272.193 332 281.757 332H420.289Z" fill="white"/>
</g>
<defs>
<clipPath id="clip0_1_10">
<rect width="990" height="288" fill="white" transform="translate(209 276)"/>
</clipPath>
</defs>
</svg>
