<svg width="200" height="200" viewBox="0 0 200 200" fill="none" xmlns="http://www.w3.org/2000/svg">
<circle cx="100" cy="100" r="100" fill="white" fill-opacity="0.16"/>
<path d="M156 66.4232C151.753 68.1657 147.262 69.3176 142.666 69.8431C147.515 67.1035 151.148 62.7937 152.892 57.7132C148.336 60.2784 143.348 62.0858 138.146 63.0567C134.669 59.4903 130.038 57.1163 124.98 56.307C119.923 55.4977 114.724 56.299 110.2 58.5852C105.676 60.8713 102.082 64.513 99.9816 68.9391C97.8815 73.3653 97.3942 78.3254 98.596 83.0417C89.3833 82.601 80.3716 80.3323 72.1464 76.3829C63.9212 72.4335 56.6665 66.8918 50.8535 60.1178C48.8146 63.4851 47.7433 67.2986 47.746 71.179C47.7388 74.7826 48.6738 78.332 50.4679 81.5111C52.262 84.6903 54.8595 87.4005 58.029 89.4006C54.3451 89.3058 50.7399 88.3709 47.52 86.6753V86.9425C47.5476 91.9916 49.4184 96.8767 52.8158 100.772C56.2133 104.666 60.9289 107.332 66.165 108.317C64.1494 108.897 62.0567 109.203 59.95 109.225C58.4917 109.209 57.037 109.084 55.5995 108.851C57.0906 113.195 59.9761 116.99 63.8546 119.71C67.733 122.43 72.4115 123.939 77.239 124.027C69.0872 130.093 59.0227 133.404 48.65 133.432C46.7614 133.438 44.8743 133.33 43 133.111C53.5905 139.578 65.9323 143.011 78.5385 142.997C87.2378 143.082 95.8678 141.527 103.925 138.423C111.981 135.319 119.303 130.727 125.463 124.917C131.622 119.106 136.496 112.193 139.799 104.581C143.102 96.9693 144.768 88.8113 144.7 80.5837V77.7516C149.134 74.6246 152.957 70.7912 156 66.4232Z" fill="white" fill-opacity="0.6"/>
</svg>
