<svg width="1408" height="840" viewBox="0 0 1408 840" fill="none" xmlns="http://www.w3.org/2000/svg">
<rect width="1408" height="840" fill="#DEC7FF"/>
<g clip-path="url(#clip0_7_5)">
<path d="M326.245 482.666V276L236 428.756L326.245 482.666Z" fill="#FFE644"/>
<path d="M326.245 276L416.489 428.756L326.245 482.666V276Z" fill="#EC7463"/>
<path d="M236 440.356L326.245 494.265V564" fill="#009ECB"/>
<path d="M416.489 440.356L326.245 494.265V564" fill="#4D68AE"/>
<path d="M326.245 374.851L236 428.756L326.245 482.666V374.851Z" fill="#57A759"/>
<path d="M326.245 374.851L416.489 428.76L326.245 482.67V374.851Z" fill="#8E5298"/>
<path d="M477.458 382.192C477.351 376.851 478.571 371.567 481.009 366.813C483.26 362.476 486.712 358.877 490.953 356.448C495.465 353.951 500.558 352.694 505.714 352.805C510.764 352.72 515.741 354.02 520.103 356.565C524.325 359.089 527.75 362.751 529.986 367.132C532.419 371.926 533.642 377.242 533.549 382.617V387.017H492.418C492.468 388.626 492.846 390.208 493.53 391.665C494.214 393.122 495.188 394.425 496.394 395.492C499.084 397.739 502.52 398.894 506.022 398.73C508.714 398.757 511.372 398.129 513.767 396.9C516.687 395.246 519.306 393.108 521.512 390.578L530.824 400.098C527.717 403.578 523.947 406.405 519.734 408.411C515.445 410.425 510.756 411.446 506.018 411.398C500.792 411.512 495.627 410.256 491.038 407.755C486.761 405.365 483.27 401.785 480.989 397.451C478.556 392.739 477.342 387.493 477.458 382.192V382.192ZM518.479 376.121C518.36 374.64 517.939 373.199 517.243 371.886C516.546 370.573 515.59 369.415 514.431 368.484C511.93 366.535 508.854 365.468 505.683 365.449C502.512 365.43 499.424 366.46 496.9 368.379C494.589 370.36 493.073 373.11 492.633 376.121H518.479Z" fill="#26293B"/>
<path d="M580.331 367.736V390.02C580.262 390.752 580.343 391.491 580.568 392.191C580.793 392.892 581.157 393.539 581.639 394.095C582.874 395.052 584.427 395.504 585.983 395.358H598.647V409.795H584.622C579.507 410.123 574.447 408.58 570.387 405.452C568.677 403.892 567.338 401.968 566.469 399.823C565.599 397.678 565.221 395.366 565.363 393.055V367.736H551.759V354.343H565.367V340.214H580.347V354.343H602.105V367.736H580.331Z" fill="#26293B"/>
<path d="M622.405 333.411H637.385V359.463H637.595C641.007 355.947 645.493 353.667 650.346 352.985C655.198 352.303 660.14 353.256 664.389 355.695C667.571 357.698 670.113 360.568 671.717 363.968C673.527 367.826 674.422 372.051 674.333 376.312V409.791H659.353V378.303C659.534 375.153 658.523 372.051 656.519 369.613C655.534 368.558 654.331 367.73 652.993 367.187C651.656 366.645 650.215 366.401 648.773 366.473C647.24 366.387 645.706 366.618 644.266 367.15C642.826 367.682 641.51 368.504 640.401 369.565C639.351 370.712 638.541 372.057 638.019 373.522C637.498 374.986 637.275 376.54 637.364 378.092V409.795H622.384L622.405 333.411Z" fill="#26293B"/>
<path d="M690.936 382.192C690.828 376.85 692.051 371.565 694.495 366.813C696.744 362.474 700.197 358.876 704.439 356.448C708.949 353.95 714.041 352.693 719.196 352.805C724.246 352.719 729.223 354.02 733.585 356.565C737.808 359.09 741.236 362.752 743.476 367.132C745.905 371.928 747.127 377.243 747.035 382.617V387.017H705.916C705.964 388.626 706.341 390.209 707.025 391.667C707.709 393.124 708.685 394.426 709.892 395.492C712.581 397.739 716.015 398.895 719.516 398.73C722.208 398.757 724.866 398.129 727.261 396.9C730.184 395.248 732.804 393.11 735.01 390.578L744.322 400.098C741.214 403.578 737.443 406.404 733.229 408.411C728.94 410.426 724.251 411.447 719.512 411.398C714.286 411.513 709.121 410.258 704.532 407.755C700.254 405.367 696.762 401.787 694.483 397.451C692.042 392.741 690.822 387.495 690.936 382.192V382.192ZM731.961 376.121C731.842 374.64 731.421 373.199 730.725 371.886C730.028 370.573 729.072 369.415 727.913 368.484C725.412 366.535 722.336 365.468 719.165 365.449C715.994 365.43 712.906 366.46 710.382 368.379C708.062 370.356 706.538 373.107 706.09 376.121H731.961Z" fill="#26293B"/>
<path d="M768.833 354.347H783.169V359.467H783.379C785.428 357.26 787.928 355.521 790.709 354.366C793.49 353.212 796.488 352.67 799.497 352.777C804.019 352.676 808.43 354.177 811.951 357.014C815.547 360.003 818.111 364.047 819.279 368.573L805.254 373.175C804.625 371.075 803.294 369.255 801.485 368.016C799.676 366.777 797.497 366.196 795.311 366.368C793.727 366.258 792.138 366.497 790.657 367.068C789.175 367.638 787.837 368.527 786.736 369.67C784.659 372.212 783.612 375.44 783.801 378.716V409.795H768.82L768.833 354.347Z" fill="#26293B"/>
<path d="M833.287 382.192C833.182 376.85 834.405 371.566 836.846 366.813C839.097 362.476 842.549 358.877 846.79 356.448C851.301 353.952 856.392 352.695 861.547 352.805C866.597 352.718 871.574 354.019 875.936 356.565C880.162 359.088 883.591 362.751 885.831 367.132C888.258 371.928 889.477 377.244 889.382 382.617V387.017H848.259C848.306 388.626 848.682 390.209 849.365 391.666C850.048 393.124 851.024 394.426 852.231 395.492C854.921 397.74 858.357 398.895 861.859 398.73C864.551 398.757 867.209 398.129 869.604 396.9C872.525 395.246 875.143 393.108 877.349 390.578L886.661 400.098C883.555 403.581 879.783 406.407 875.568 408.411C871.281 410.425 866.595 411.446 861.859 411.398C856.633 411.512 851.468 410.256 846.879 407.755C842.602 405.365 839.111 401.785 836.83 397.451C834.393 392.74 833.175 387.494 833.287 382.192V382.192ZM874.312 376.121C874.193 374.64 873.772 373.199 873.076 371.886C872.379 370.573 871.423 369.415 870.264 368.484C867.763 366.535 864.687 365.468 861.516 365.449C858.345 365.43 855.257 366.46 852.733 368.379C850.417 370.36 848.893 373.109 848.441 376.121H874.312Z" fill="#26293B"/>
<path d="M907.601 390.955V354.335H922.581V387.523C922.373 388.894 922.49 390.294 922.92 391.613C923.35 392.931 924.082 394.131 925.058 395.117C926.034 396.102 927.227 396.846 928.541 397.289C929.856 397.732 931.256 397.862 932.629 397.669C933.952 397.732 935.274 397.518 936.51 397.041C937.745 396.563 938.867 395.833 939.804 394.897C940.712 393.904 941.416 392.741 941.874 391.476C942.332 390.21 942.535 388.867 942.472 387.523V354.335H957.452V409.783H943.111V404.869H942.901C941.215 406.941 939.039 408.559 936.569 409.576C932.686 411.211 928.426 411.739 924.261 411.102C920.096 410.465 916.189 408.687 912.973 405.966C911.114 403.954 909.68 401.587 908.756 399.008C907.833 396.428 907.44 393.689 907.601 390.955V390.955Z" fill="#26293B"/>
<path d="M974.051 354.347H987.246V359.159H987.456C988.569 357.341 990.136 355.845 992.003 354.817C993.883 353.795 995.993 353.272 998.133 353.295C1000.28 353.291 1002.4 353.862 1004.25 354.946C1006.11 356.031 1007.64 357.592 1008.7 359.467H1008.91C1010.13 357.527 1011.83 355.938 1013.85 354.856C1015.87 353.774 1018.13 353.236 1020.42 353.295C1022.28 353.233 1024.13 353.586 1025.83 354.329C1027.53 355.072 1029.04 356.186 1030.25 357.589C1032.87 360.717 1034.21 364.709 1034.03 368.78V409.799H1020.23V371.402C1020.27 370.742 1020.19 370.08 1019.97 369.454C1019.76 368.829 1019.42 368.253 1018.98 367.76C1018.5 367.321 1017.94 366.984 1017.32 366.767C1016.71 366.55 1016.06 366.458 1015.42 366.497C1014.76 366.469 1014.11 366.581 1013.51 366.825C1012.9 367.07 1012.36 367.441 1011.91 367.914C1011 368.972 1010.53 370.34 1010.6 371.734V409.815H997.521V371.402C997.592 370.088 997.158 368.797 996.307 367.792C995.867 367.342 995.336 366.992 994.749 366.765C994.163 366.538 993.534 366.44 992.906 366.477C992.234 366.448 991.562 366.559 990.935 366.803C990.308 367.046 989.738 367.418 989.262 367.893C988.793 368.408 988.431 369.011 988.197 369.667C987.963 370.323 987.861 371.019 987.898 371.714V409.795H974.084L974.051 354.347Z" fill="#26293B"/>
<path d="M494.204 484.342H479.551V470.949H494.204V462.786C494.099 460.619 494.481 458.456 495.322 456.456C496.163 454.455 497.44 452.669 499.062 451.227C502.874 448.214 507.66 446.706 512.512 446.989H528.629V460.276H514.297C513.69 460.234 513.08 460.314 512.503 460.511C511.927 460.707 511.396 461.017 510.941 461.422C510.542 461.857 510.235 462.368 510.037 462.924C509.84 463.48 509.756 464.071 509.791 464.66V470.937H531.998V484.342H509.791V520.229H494.204V484.342Z" fill="#26293B"/>
<path d="M548.622 492.501C548.52 487.21 549.744 481.977 552.18 477.279C554.46 472.947 557.927 469.354 562.177 466.922C566.713 464.485 571.784 463.209 576.934 463.209C582.084 463.209 587.155 464.485 591.691 466.922C595.941 469.354 599.408 472.947 601.688 477.279C604.028 482.012 605.246 487.221 605.246 492.501C605.246 497.781 604.028 502.99 601.688 507.723C599.41 512.055 595.942 515.647 591.691 518.076C587.155 520.513 582.084 521.788 576.934 521.788C571.784 521.788 566.713 520.513 562.177 518.076C557.92 515.649 554.446 512.057 552.164 507.723C549.734 503.023 548.516 497.79 548.622 492.501V492.501ZM590.274 492.501C590.518 488.384 589.274 484.316 586.768 481.039C585.538 479.645 584.007 478.549 582.29 477.833C580.574 477.117 578.718 476.8 576.861 476.907C575.023 476.809 573.188 477.131 571.492 477.847C569.797 478.563 568.287 479.654 567.076 481.039C564.57 484.316 563.325 488.384 563.569 492.501C563.324 496.617 564.569 500.684 567.076 503.959C568.352 505.271 569.88 506.313 571.567 507.022C573.255 507.732 575.068 508.096 576.899 508.091C578.729 508.086 580.541 507.713 582.224 506.994C583.908 506.275 585.43 505.225 586.699 503.906C589.23 500.661 590.5 496.609 590.274 492.501V492.501Z" fill="#26293B"/>
<path d="M622.907 501.385V464.769H637.887V497.957C637.684 499.326 637.804 500.724 638.237 502.039C638.669 503.354 639.403 504.55 640.378 505.532C641.354 506.514 642.546 507.256 643.858 507.697C645.171 508.138 646.568 508.268 647.939 508.075C649.262 508.138 650.583 507.925 651.818 507.447C653.053 506.97 654.174 506.239 655.11 505.302C656.019 504.31 656.724 503.148 657.182 501.882C657.64 500.616 657.842 499.273 657.778 497.928V464.769H672.758V520.217H658.405V515.307H658.195C656.506 517.375 654.33 518.99 651.863 520.01C648.775 521.719 645.281 522.559 641.754 522.442C638.226 522.325 634.796 521.255 631.828 519.345C628.86 517.436 626.465 514.759 624.897 511.598C623.329 508.437 622.647 504.91 622.923 501.393L622.907 501.385Z" fill="#26293B"/>
<path d="M693.572 464.777H708.552V470.01H708.754C710.832 467.89 713.281 466.169 715.981 464.935C718.756 463.743 721.752 463.154 724.771 463.207C728.315 463.188 731.806 464.068 734.917 465.765C738.168 467.591 740.821 470.317 742.557 473.616C744.637 477.672 745.648 482.191 745.492 486.746V520.225H730.512V488.733C730.66 485.64 729.695 482.596 727.791 480.153C726.815 479.052 725.601 478.188 724.24 477.627C722.88 477.066 721.41 476.823 719.941 476.915C718.408 476.828 716.873 477.058 715.433 477.59C713.992 478.122 712.677 478.945 711.568 480.007C710.518 481.154 709.708 482.499 709.187 483.964C708.665 485.428 708.443 486.982 708.532 488.535V520.237H693.552L693.572 464.777Z" fill="#26293B"/>
<path d="M760.966 492.497C760.882 487.294 761.99 482.142 764.205 477.433C766.2 473.162 769.355 469.536 773.31 466.971C777.277 464.442 781.898 463.132 786.602 463.203C791.988 462.888 797.284 464.69 801.36 468.225H801.57V443.844H816.55V520.225H802.74V515.412H802.526C800.432 517.539 797.917 519.205 795.141 520.303C792.365 521.401 789.391 521.906 786.408 521.787C781.771 521.861 777.21 520.596 773.274 518.144C769.341 515.637 766.202 512.065 764.221 507.844C761.972 503.046 760.859 497.794 760.966 492.497ZM801.574 496.046V488.838C801.579 486.764 800.998 484.732 799.898 482.974C798.75 481.135 797.146 479.624 795.242 478.586C793.211 477.456 790.919 476.877 788.594 476.907C786.825 476.835 785.064 477.181 783.454 477.918C781.845 478.655 780.432 479.762 779.331 481.148C777.1 484.509 775.914 488.455 775.923 492.489C775.933 496.522 777.137 500.463 779.383 503.813C780.455 505.195 781.839 506.305 783.421 507.051C785.004 507.797 786.74 508.159 788.489 508.107C791.953 508.221 795.322 506.961 797.862 504.602C799.053 503.523 800 502.202 800.64 500.728C801.28 499.255 801.599 497.661 801.574 496.054V496.046Z" fill="#26293B"/>
<path d="M836.737 505.371C836.618 503.093 837.033 500.818 837.951 498.728C838.868 496.639 840.262 494.793 842.02 493.339C847.289 489.817 853.351 487.66 859.66 487.061C862.708 486.724 865.688 485.93 868.499 484.706C869.185 484.407 869.771 483.918 870.189 483.297C870.606 482.676 870.837 481.949 870.855 481.201C870.862 480.393 870.651 479.598 870.246 478.899C869.841 478.2 869.256 477.622 868.551 477.226C866.638 476.155 864.461 475.647 862.272 475.761C859.43 475.702 856.662 476.668 854.474 478.481C852.261 480.319 850.761 482.874 850.235 485.701L836.316 482.561C836.982 478.859 838.605 475.396 841.024 472.515C843.52 469.546 846.673 467.2 850.235 465.663C854.029 464.005 858.131 463.168 862.272 463.207C868.516 462.892 874.637 465.025 879.333 469.152C881.469 471.196 883.144 473.673 884.245 476.417C885.347 479.161 885.848 482.108 885.717 485.062V520.217H872.329V514.053H872.118C870.447 516.548 868.109 518.524 865.369 519.755C862.298 521.147 858.955 521.838 855.583 521.779C852.227 521.838 848.902 521.123 845.866 519.69C843.126 518.405 840.802 516.374 839.162 513.83C837.549 511.306 836.706 508.366 836.737 505.371V505.371ZM871.482 499.616V493.339H871.28C870.524 494.484 869.426 495.362 868.142 495.848C865.902 496.693 863.587 497.323 861.227 497.73C858.417 498.184 855.697 499.083 853.17 500.393C852.487 500.794 851.924 501.369 851.537 502.06C851.151 502.75 850.956 503.532 850.972 504.323C850.943 505.047 851.107 505.766 851.447 506.405C851.787 507.045 852.291 507.584 852.907 507.965C854.617 508.904 856.559 509.339 858.506 509.22C860.703 509.228 862.877 508.78 864.891 507.905C866.767 507.146 868.423 505.928 869.705 504.363C870.828 503.033 871.457 501.356 871.486 499.616H871.482Z" fill="#26293B"/>
<path d="M936.172 478.169V500.454C936.102 501.186 936.182 501.925 936.406 502.625C936.63 503.326 936.994 503.974 937.476 504.529C938.71 505.488 940.264 505.94 941.82 505.792H954.484V520.229H940.46C935.347 520.557 930.289 519.014 926.233 515.886C924.522 514.326 923.182 512.403 922.312 510.258C921.442 508.112 921.063 505.8 921.204 503.489V478.169H907.605V464.777H921.204V450.652H936.184V464.777H957.946V478.169H936.172Z" fill="#26293B"/>
<path d="M1031.2 506.521V520.225H976.675V506.521H996.457V478.481H977.707V464.773H1011.41V506.521H1031.2ZM996.137 441.359H1011.52V456.104H996.137V441.359Z" fill="#26293B"/>
<path d="M1046.8 492.501C1046.7 487.211 1047.92 481.979 1050.35 477.279C1052.63 472.948 1056.1 469.356 1060.35 466.922C1064.89 464.485 1069.96 463.209 1075.11 463.209C1080.26 463.209 1085.33 464.485 1089.86 466.922C1094.11 469.354 1097.58 472.947 1099.86 477.279C1102.2 482.013 1103.41 487.222 1103.41 492.501C1103.41 497.78 1102.2 502.988 1099.86 507.723C1097.58 512.055 1094.11 515.647 1089.86 518.076C1085.33 520.513 1080.26 521.788 1075.11 521.788C1069.96 521.788 1064.89 520.513 1060.35 518.076C1056.1 515.645 1052.63 512.054 1050.35 507.723C1047.92 503.023 1046.7 497.791 1046.8 492.501V492.501ZM1088.45 492.501C1088.69 488.384 1087.45 484.316 1084.94 481.039C1083.71 479.647 1082.19 478.553 1080.47 477.837C1078.76 477.121 1076.9 476.803 1075.05 476.907C1073.21 476.81 1071.38 477.132 1069.68 477.848C1067.99 478.563 1066.48 479.655 1065.27 481.039C1062.76 484.314 1061.51 488.383 1061.76 492.501C1061.51 496.617 1062.76 500.685 1065.27 503.959C1066.54 505.271 1068.07 506.313 1069.76 507.022C1071.45 507.732 1073.26 508.096 1075.09 508.091C1076.92 508.086 1078.73 507.713 1080.42 506.994C1082.1 506.275 1083.62 505.225 1084.89 503.906C1087.42 500.659 1088.68 496.607 1088.45 492.501V492.501Z" fill="#26293B"/>
<path d="M1120.6 464.777H1135.58V470.01H1135.8C1137.87 467.888 1140.32 466.168 1143.02 464.935C1145.79 463.744 1148.79 463.155 1151.81 463.207C1155.35 463.187 1158.85 464.067 1161.96 465.765C1165.21 467.591 1167.86 470.317 1169.6 473.616C1171.68 477.672 1172.69 482.191 1172.53 486.746V520.225H1157.55V488.733C1157.7 485.639 1156.74 482.594 1154.83 480.153C1153.85 479.051 1152.64 478.187 1151.28 477.626C1149.92 477.065 1148.45 476.822 1146.98 476.915C1145.44 476.829 1143.91 477.06 1142.47 477.592C1141.03 478.124 1139.71 478.946 1138.61 480.007C1137.56 481.154 1136.75 482.499 1136.22 483.964C1135.7 485.428 1135.48 486.982 1135.57 488.535V520.237H1120.59L1120.6 464.777Z" fill="#26293B"/>
</g>
<defs>
<clipPath id="clip0_7_5">
<rect width="936.497" height="288" fill="white" transform="translate(236 276)"/>
</clipPath>
</defs>
</svg>
