<svg width="200" height="200" viewBox="0 0 200 200" fill="none" xmlns="http://www.w3.org/2000/svg">
<circle cx="100" cy="100" r="100" fill="white" fill-opacity="0.16"/>
<path d="M156.906 68.3114C156.6 70.8423 155.481 73.2783 153.563 75.2088L108.822 119.95C104.243 124.529 96.757 124.529 92.1778 119.95L47.4369 75.2088C45.5065 73.2783 44.3883 70.83 44.0944 68.3114C44.0352 68.7941 44 69.2766 44 69.771V130.979C44 137.453 49.2965 142.75 55.7712 142.75H145.229C151.703 142.75 157 137.453 157 130.979V69.771C157 69.2766 156.965 68.7941 156.906 68.3114ZM108.822 111.381L155.729 64.4738C153.786 60.6367 149.796 58 145.229 58H55.7712C51.2043 58 47.2132 60.6367 45.2717 64.4738L92.1778 111.381C96.7564 115.96 104.243 115.96 108.822 111.381Z" fill="white" fill-opacity="0.6"/>
</svg>
