<svg width="201" height="70" viewBox="0 0 201 70" fill="none" xmlns="http://www.w3.org/2000/svg">
    <path d="M78.6879 62.0794V54.6206H82.1532C87.0377 54.6206 88.9519 55.5117 90.272 58.416C91.0311 60.0331 91.0971 63.6305 90.437 65.2147C89.81 66.7658 88.4898 68.086 87.0377 68.68C86.3776 68.977 84.2984 69.2741 82.2522 69.3731L78.6879 69.5711V62.0794ZM85.7506 66.1058C87.6318 65.2477 88.4238 62.2774 87.4337 59.7031C86.7737 57.9539 85.5856 57.2609 83.1433 57.2609H81.6582V61.8813V66.5018H83.3083C84.1994 66.5018 85.2885 66.3368 85.7506 66.1058Z" fill="white"/>
    <path d="M92.5492 69.1753C92.5492 69.0103 93.6383 65.71 94.9914 61.8486L97.4337 54.7859L99.5129 54.6869L101.625 54.5879L104.034 61.6176C105.354 65.479 106.411 68.8453 106.411 69.0763C106.411 69.3734 105.949 69.4724 104.859 69.4064L103.275 69.3074L102.648 67.5582L102.021 65.809L99.5129 65.908L97.0046 66.007L96.3776 67.7562L95.7505 69.4724H94.1664C93.2753 69.4724 92.5492 69.3404 92.5492 69.1753ZM101.13 63.1027C101.13 62.1456 99.5459 58.1192 99.3479 58.5813C98.8858 59.7034 97.8297 63.0037 97.8297 63.2678C97.8297 63.3998 98.5888 63.5318 99.4799 63.5318C100.602 63.5318 101.13 63.3998 101.13 63.1027Z" fill="white"/>
    <path d="M112.648 69.1422C110.008 68.3501 108.391 65.9739 108.127 62.5085C108.028 60.8584 108.127 59.8353 108.523 58.7792C110.668 53.2016 118.259 52.7396 120.998 58.0531C121.526 59.0762 121.691 60.0003 121.691 61.8815C121.691 65.5118 120.371 67.7891 117.566 68.9772C116.279 69.5052 114.067 69.6042 112.648 69.1422ZM117.368 65.4788C118.424 64.3897 118.787 62.7726 118.457 60.6603C117.995 57.426 114.925 56.1389 112.615 58.2181C111.658 59.0762 111.526 59.3732 111.427 61.4194C111.295 64.2907 111.988 65.8419 113.671 66.4029C115.189 66.898 116.279 66.6339 117.368 65.4788Z" fill="white"/>
    <path d="M1.3611 68.5478C1.03107 68.2178 0.800049 67.5577 0.800049 67.1287C0.800049 66.6666 2.05417 63.9604 3.53932 61.0561C8.81985 50.9901 21.0311 27.7228 22.4832 24.9175C23.3083 23.3663 24.1994 21.8482 24.4964 21.5511C25.5195 20.363 29.975 21.0561 33.3083 22.9373L34.9585 23.8614L36.1136 23.0693C38.6218 21.3201 44.0344 20.363 45.1235 21.4521C45.3875 21.7162 47.7967 26.1386 50.47 31.2541C53.1763 36.4026 56.1466 42.0792 57.0707 43.8944C66.3116 61.4521 68.6878 66.1056 68.8529 66.7327C68.9849 67.2277 68.8199 67.7888 68.3908 68.3168L67.7637 69.1419H56.1136C45.4205 69.1419 44.4304 69.1089 43.9684 68.5808C43.5063 68.0528 40.272 62.0462 36.3446 54.3894C35.5855 52.9043 34.8595 51.7822 34.7604 51.8482C34.6284 51.9142 32.6482 55.5775 30.338 60C28.0608 64.3894 25.9156 68.2508 25.6515 68.5478C25.1565 69.1089 24.1664 69.1419 13.5063 69.1419C2.68124 69.1419 1.85615 69.1089 1.3611 68.5478ZM24.1004 63.2013C24.5294 62.3762 26.6086 58.4488 28.6878 54.4554L32.5162 47.1947L30.8 43.6633C29.2489 40.396 29.0839 39.868 28.9189 37.1287C28.7208 33.5973 29.3479 30.7591 30.8661 28.3828C31.3941 27.5577 31.8232 26.8317 31.8232 26.7657C31.8232 26.5016 28.4898 25.2475 27.7307 25.2475C26.8727 25.2475 26.3446 26.2046 17.4667 43.2343C16.2456 45.6105 14.6944 48.5808 14.0014 49.835C13.3413 51.1221 11.5591 54.5214 10.041 57.4257C8.55582 60.33 7.00467 63.2013 6.67464 63.7954L6.01457 64.8515L14.6614 64.7855L23.2753 64.6864L24.1004 63.2013ZM62.0872 62.1452C61.2621 60.627 57.8958 54.2244 54.5954 47.8548C51.2951 41.5181 47.9618 35.1155 47.1697 33.6633C46.4106 32.2112 45.0905 29.6699 44.2324 28.0198L42.6812 24.9835L41.6251 25.2475C40.239 25.5775 38.7208 26.2046 38.1928 26.6336C37.8628 26.8977 37.9618 27.2277 38.6218 28.1518C40.503 30.9241 41.3281 36.3366 40.404 39.769C40.173 40.594 39.3479 42.5742 38.5558 44.1584L37.1037 47.0627L41.7571 55.9406L46.4106 64.8515H54.9585H63.5393L62.0872 62.1452ZM35.8166 40.693C36.4766 39.2739 36.6086 38.4158 36.6086 35.9736C36.6086 33.4323 36.4766 32.7723 35.7505 31.3861L34.8925 29.736L34.2984 30.66C33.5723 31.7822 32.8133 34.5544 32.8133 36.1386C32.8133 38.0528 34.1994 42.4092 34.7934 42.4092C34.9255 42.4092 35.3875 41.6171 35.8166 40.693Z" fill="white"/>
    <path d="M160.965 49.6701C159.909 49.34 158.556 47.9539 158.556 47.1948C158.556 46.4688 160.932 46.3697 161.724 47.0628C162.483 47.7889 164.1 47.8879 164.958 47.2608C165.288 47.0298 165.619 46.2047 165.718 45.4126C165.916 44.0595 165.883 43.9935 165.222 44.3565C164.859 44.5546 164.43 44.8846 164.331 45.0496C164.001 45.5777 161.229 45.4457 160.206 44.8516C158.721 43.9605 158.094 42.5414 158.094 40.0991C158.094 37.7229 158.688 36.2707 160.074 35.1816C161.229 34.2575 163.44 34.2575 164.595 35.1486C165.057 35.5117 165.519 35.8087 165.619 35.8087C165.718 35.8087 165.817 35.5117 165.817 35.1486C165.817 34.5876 166.048 34.4886 167.302 34.4886H168.787V40.5942C168.787 47.4259 168.589 48.2509 166.741 49.208C165.486 49.8681 162.417 50.0991 160.965 49.6701ZM164.727 42.5744C166.312 41.4523 165.817 37.3928 164.067 36.9638C161.724 36.3697 160.173 40.0331 161.889 42.2113C162.648 43.1684 163.671 43.3004 164.727 42.5744Z" fill="white"/>
    <path d="M115.982 42.0795V34.4888H117.467C118.853 34.4888 118.952 34.5548 118.952 35.3469V36.2379L119.81 35.3469C120.503 34.6538 120.998 34.4888 122.252 34.4888C125.057 34.4888 126.543 36.403 126.543 40.0993C126.543 42.6076 125.883 44.1917 124.496 45.0498C122.945 45.9739 121.229 45.9079 119.975 44.8518L118.952 43.9937V46.832V49.6703H117.467H115.982V42.0795ZM122.714 42.5746C123.935 41.3535 123.605 37.8551 122.186 37.096C119.942 35.9079 118.061 39.3733 119.447 42.0795C119.876 42.8716 120.173 43.0696 121.097 43.0696C121.691 43.0696 122.417 42.8386 122.714 42.5746Z" fill="white"/>
    <path d="M80.701 45.1487C79.4139 44.4887 78.5228 43.3335 78.2257 42.0134C78.0277 41.0893 78.0277 41.0893 79.6779 41.0893C80.569 41.0893 81.3281 41.2543 81.3281 41.4193C81.3281 41.6174 81.6251 42.0464 81.9881 42.4094C83.2753 43.6966 86.6086 42.9705 86.6086 41.4193C86.6086 40.5943 85.5525 39.9012 83.4733 39.4061C80.8 38.7461 79.3479 37.888 78.8198 36.5679C77.5327 33.5646 80.1069 30.7593 84.1333 30.7593C86.5096 30.7593 88.0277 31.4523 88.9188 32.9375C89.9749 34.6537 89.8099 35.1487 88.1267 35.1487C86.9386 35.1487 86.5756 34.9837 86.1465 34.3236C85.0244 32.6075 80.998 33.6636 81.9551 35.4127C82.3182 36.0728 82.9452 36.3698 86.0145 37.2609C89.1498 38.185 90.536 40.5613 89.3479 42.9705C88.3908 44.9507 87.2687 45.5118 84.3644 45.6438C82.4172 45.7098 81.5591 45.6108 80.701 45.1487Z" fill="white"/>
    <path d="M91.6911 45.2806C91.6251 45.0496 91.5921 42.5744 91.6251 39.7691L91.7241 34.6536L93.1433 34.5546C94.3644 34.4556 94.5954 34.5546 94.7604 35.1156C94.9255 35.8087 94.9255 35.8087 95.7505 35.1486C96.8397 34.2905 99.3479 34.2575 100.338 35.0826C101.658 36.1387 101.856 37.0298 101.856 41.3862V45.5447L100.338 45.6437L98.8198 45.7427V41.9803C98.8198 37.8549 98.5228 37.1288 96.7736 37.1288C95.1895 37.1288 94.8595 37.9539 94.8595 42.0133V45.7097H93.3743C92.4502 45.7097 91.7901 45.5447 91.6911 45.2806Z" fill="white"/>
    <path d="M104.727 44.7528C102.78 42.8056 103.869 39.7033 106.708 39.2742C109.909 38.7462 110.206 38.6142 110.206 37.7891C110.206 37.096 110.041 36.964 109.018 36.865C108.259 36.799 107.698 36.931 107.401 37.261C106.972 37.7891 104.1 38.0201 104.1 37.558C104.133 37.393 104.298 36.964 104.562 36.5349C106.114 33.6967 112.252 33.7957 113.341 36.667C113.539 37.129 113.671 39.3402 113.671 41.6175V45.7099H112.186C110.899 45.7099 110.701 45.6109 110.701 45.0168V44.3567L109.843 45.0168C109.216 45.5118 108.49 45.7099 107.335 45.7099C105.982 45.7099 105.553 45.5448 104.727 44.7528ZM109.645 43.2016C110.107 42.8716 110.371 42.3765 110.371 41.6835C110.371 40.6934 110.338 40.6934 109.15 40.9244C107.434 41.2214 106.741 41.6505 106.741 42.4095C106.741 43.6307 108.391 44.0927 109.645 43.2016Z" fill="white"/>
    <path d="M128.853 38.2841V30.8584H133.638H138.424V32.1785V33.4987H135.123H131.823V35.1488V36.799H134.793H137.764V38.1191V39.4063L134.892 39.5053L131.988 39.6043L131.889 42.6736L131.79 45.7099H130.338H128.853V38.2841Z" fill="white"/>
    <path d="M140.404 40.1323V34.4888H142.054H143.704L143.638 40.0333L143.539 45.5449L141.988 45.6439L140.404 45.7429V40.1323Z" fill="white"/>
    <path d="M146.015 40.0993V34.4888H147.5C148.853 34.4888 148.985 34.5548 148.985 35.3139V36.1059L149.81 35.3139C150.437 34.6538 150.932 34.4888 152.318 34.4888C153.77 34.4888 154.133 34.6208 154.925 35.4789C156.081 36.7 156.312 38.1191 156.18 42.4096L156.081 45.5449L154.529 45.6439L152.945 45.7429V41.9475C152.945 37.7561 152.681 37.129 150.965 37.129C149.348 37.129 148.985 38.0861 148.985 42.1455V45.7099H147.5H146.015V40.0993Z" fill="white"/>
    <path d="M173.176 45.0498C172.582 44.7197 171.823 43.8287 171.427 43.1026C170.074 40.3963 170.899 36.5349 173.176 35.1488C174.628 34.2577 177.5 34.2577 178.952 35.1488C180.173 35.9079 181.295 38.0531 181.328 39.6702V40.7263L177.632 40.8254C174.1 40.9244 173.902 40.9574 174.001 41.5844C174.331 43.3666 176.51 43.9937 177.863 42.7395C178.457 42.1785 178.853 42.1125 179.942 42.2775L181.295 42.4755L180.8 43.4656C180.536 43.9937 179.843 44.7197 179.249 45.0498C177.797 45.9409 174.628 45.9409 173.176 45.0498ZM178.358 38.4491C178.358 37.789 177.005 36.799 176.114 36.799C175.586 36.799 174.926 37.063 174.661 37.393C173.539 38.7131 173.605 38.7791 176.015 38.7791C177.368 38.7791 178.358 38.6471 178.358 38.4491Z" fill="white"/>
    <path d="M183.308 40.0993V34.4888H184.793C186.114 34.4888 186.279 34.5878 186.279 35.2148V35.9079L187.038 35.2148C187.5 34.7858 188.226 34.4888 188.853 34.4888C189.876 34.4888 189.909 34.5548 189.909 35.8089C189.909 37.063 189.876 37.129 188.853 37.129C186.741 37.129 186.279 38.0861 186.279 42.3766V45.7099H184.793H183.308V40.0993Z" fill="white"/>
    <path d="M192.978 45.2147C192.12 44.8516 190.899 43.3005 190.899 42.6074C190.899 42.5414 191.493 42.3764 192.252 42.2444C193.374 42.0463 193.704 42.1123 194.232 42.7064C194.991 43.4985 196.873 43.6635 197.467 42.9374C198.028 42.2774 197.203 41.5513 195.619 41.2873C191.559 40.5942 190.041 38.1519 192.186 35.7427C192.978 34.8516 193.374 34.6866 195.123 34.5546C196.246 34.4886 197.5 34.4886 197.929 34.6206C198.952 34.8516 200.47 36.4028 200.47 37.1618C200.47 37.6899 200.206 37.7889 199.117 37.7889C198.226 37.7889 197.599 37.5909 197.335 37.2609C196.543 36.1717 193.803 36.9638 194.496 38.0529C194.628 38.284 195.784 38.713 197.005 39.01C199.678 39.6041 200.8 40.5282 200.8 42.1453C200.8 44.3896 198.919 45.7097 195.784 45.7097C194.826 45.6767 193.572 45.4787 192.978 45.2147Z" fill="white"/>
    <path d="M140.8 32.7726C140.074 32.0466 140.338 30.6604 141.262 30.2314C143.011 29.4393 144.463 31.3865 143.11 32.6076C142.384 33.2677 141.361 33.3337 140.8 32.7726Z" fill="white"/>
    <path d="M24.1664 16.1056C23.0442 14.8185 20.272 9.43894 20.272 8.51485C20.272 6.46864 22.7802 5.37953 24.1334 6.86468C25.1895 7.9868 28.1928 13.4653 28.1928 14.2574C28.1928 14.6205 27.8957 15.3135 27.4997 15.8086C26.6746 16.8317 24.9584 16.9967 24.1664 16.1056Z" fill="white"/>
    <path d="M33.1432 16.0067C32.5162 15.3797 32.4832 14.9176 32.4832 8.81201C32.4832 2.37637 32.4832 2.24436 33.2422 1.55129C34.1993 0.660196 35.5855 0.627193 36.4436 1.48528C37.0706 2.11234 37.1036 2.57439 37.1036 8.74601C37.1036 14.9176 37.0706 15.3797 36.4436 16.0067C36.0805 16.3698 35.3544 16.6668 34.7934 16.6668C34.2323 16.6668 33.5063 16.3698 33.1432 16.0067Z" fill="white"/>
    <path d="M42.2191 16.0069C41.229 14.9178 41.4931 13.4656 43.2092 10.3963C45.3874 6.53495 45.9155 6.0069 47.3016 6.23792C49.8429 6.63396 49.9419 8.61416 47.6317 12.6076C46.7076 14.1917 45.7175 15.7759 45.4535 16.1059C44.7274 16.898 42.9782 16.832 42.2191 16.0069Z" fill="white"/>
</svg>
